<svg id="Calque_1" xmlns="http://www.w3.org/2000/svg" viewBox="0 0 652 150">
  <style>
    .st0{fill:none;} .st1{fill:url(#SVGID_1_);} .st2{fill:#FFFFFF;} .st3{fill:url(#SVGID_2_);} .st4{fill:url(#SVGID_3_);} .st5{display:none;} .st6{display:inline;fill:none;} .st7{display:inline;}
  </style>
  <g id="Full_Cheat">
    <rect x="-44.5" y="-80.5" class="st0"/>
    <path class="st0" d="M709-80v316H-44V-80h753m1-1H-45v318h755V-81z"/>
    <linearGradient id="SVGID_1_" gradientUnits="userSpaceOnUse" x1="330.8481" y1="174.242" x2="602.731" y2="-22.7813" gradientTransform="matrix(-.9805 0 0 1 924.163 -.987)">
      <stop offset="0" stop-color="#9D44D6"/>
      <stop offset=".2861" stop-color="#7454D7"/>
      <stop offset=".771" stop-color="#336CD8"/>
      <stop offset="1" stop-color="#1A76D8"/>
    </linearGradient>
    <path class="st1" d="M283 13h369v125H283z"/>
    <path class="st2" d="M184.8 76.6l-19.3-33.4h75.4l19-33H108.3l75.8 131.3 37.5-64.9z"/>
    <linearGradient id="SVGID_2_" gradientUnits="userSpaceOnUse" x1="184.1" y1="10.4" x2="184.1" y2="141.8" gradientTransform="matrix(1 0 0 -1 0 152)">
      <stop offset="0" stop-color="#9D44D6"/>
      <stop offset=".2861" stop-color="#7454D7"/>
      <stop offset=".771" stop-color="#336CD8"/>
      <stop offset="1" stop-color="#1A76D8"/>
    </linearGradient>
    <path class="st3" d="M256.9 11.9l-17.1 29.6h-77.3l1.5 2.6 19.3 33.4.5.9h34.8L184.1 138 111.3 11.9h145.6m3-1.7H108.3l75.8 131.4 37.5-64.9h-36.8l-19.3-33.4h75.3l19.1-33.1z"/>
    <path class="st2" d="M9.8 141.3h39l18.9-32.7H105l18.9 32.7h37.6L85.7 10z"/>
    <linearGradient id="SVGID_3_" gradientUnits="userSpaceOnUse" x1="85.6" y1="10.7" x2="85.6" y2="142" gradientTransform="matrix(1 0 0 -1 0 152)">
      <stop offset="0" stop-color="#9D44D6"/>
      <stop offset=".2861" stop-color="#7454D7"/>
      <stop offset=".771" stop-color="#336CD8"/>
      <stop offset="1" stop-color="#1A76D8"/>
    </linearGradient>
    <path class="st4" d="M85.7 13.5l72.8 126.1h-33.6l-18.4-31.8-.5-.9H66.7l-.5.9-18.4 31.8H12.9L85.7 13.5m0-3.5L9.8 141.3h38.9l18.9-32.7h37.3l18.9 32.7h37.6L85.7 10z"/>
    <g class="st5">
      <path class="st6" d="M260 17h386v117H260z"/>
      <path class="st7" d="M289.9 18c0-.7.4-1.1 1.1-1.1h28.7c.4 0 .6.1.9.3s.3.5.3.9v1c0 .3-.1.6-.3.8-.2.2-.5.3-.9.3h-26.5v22.4h21.4c.3 0 .6.1.8.3.2.2.3.5.3.9v1.1c0 .3-.1.6-.3.8-.2.2-.5.3-.8.3h-21.4v14.5c0 .7-.4 1-1.1 1H291c-.7 0-1.1-.3-1.1-1V18zm72.3 15.8c0 1.4-.2 2.8-.5 4.1-.3 1.4-.8 2.7-1.5 3.9-.7 1.2-1.5 2.4-2.4 3.4-1 1.1-2.1 2-3.3 2.7l5.8 12.2s0 .1.1.2v.3c0 .2-.1.4-.2.6s-.4.3-.6.3h-1.8c-.4 0-.7-.2-.9-.6l-5.4-11.4c-1.9.7-4 1.1-6.4 1.1h-12.2v9.8c0 .8-.4 1.1-1.2 1.1h-1.1c-.8 0-1.1-.4-1.1-1.1V18.2c0-.3.1-.6.3-.9.2-.2.5-.4.7-.4h14.6c2.6 0 5 .5 7.1 1.4s3.9 2.2 5.4 3.8c1.5 1.6 2.6 3.4 3.4 5.4.8 2 1.2 4.1 1.2 6.3zm-17.1 13.3c2.2 0 4.1-.4 5.8-1.1 1.7-.8 3.1-1.7 4.3-3 1.2-1.2 2.1-2.7 2.7-4.3.6-1.6.9-3.3.9-5s-.3-3.4-.9-5-1.5-3-2.7-4.3-2.6-2.3-4.3-3c-1.7-.8-3.6-1.1-5.8-1.1h-12.2v26.8h12.2zM403.9 17c.8 0 1.1.4 1.1 1.1v1c0 .3-.1.6-.3.8-.2.2-.5.3-.9.3h-26.7v22.4h21.6c.3 0 .6.1.8.3.2.2.3.5.3.9v1.1c0 .3-.1.6-.3.8-.2.2-.5.3-.8.3h-21.6v12.3h27.2c.8 0 1.1.4 1.1 1.1v1.1c0 .7-.4 1.1-1.1 1.1h-29.6c-.3 0-.6-.1-.7-.3-.2-.2-.2-.4-.2-.8V18c0-.5.1-.8.3-.9.2-.1.5-.2.8-.2h29v.1zm11.3 1.1c0-.3.1-.6.3-.8.2-.2.4-.3.7-.3h14.5c2.1 0 4 .3 5.9.8s3.7 1.3 5.3 2.3c1.6 1 3.1 2.1 4.5 3.5 1.3 1.3 2.5 2.8 3.5 4.5.9 1.6 1.7 3.4 2.2 5.3s.8 3.9.8 5.9c0 2.1-.3 4-.8 5.9s-1.3 3.7-2.3 5.3c-1 1.6-2.1 3.1-3.5 4.5-1.4 1.3-2.9 2.5-4.5 3.4-1.7 1-3.4 1.7-5.4 2.2-1.9.5-3.9.8-6 .8h-14.1c-.3 0-.5-.1-.8-.2s-.4-.4-.4-.7l.1-42.4zm15.2 40.2c1.8 0 3.5-.2 5.2-.7s3.2-1.1 4.6-1.9c1.4-.8 2.7-1.8 3.9-3s2.2-2.5 3-3.9 1.5-2.9 1.9-4.6c.5-1.6.7-3.3.7-5.1 0-2.7-.5-5.2-1.5-7.5s-2.4-4.3-4.2-6-3.8-3-6.1-3.9-4.8-1.4-7.4-1.4h-11.9v38.1h11.8v-.1zM493.6 17c.8 0 1.1.4 1.1 1.1v1c0 .3-.1.6-.3.8-.2.2-.5.3-.9.3h-26.7v22.4h21.6c.3 0 .6.1.8.3.2.2.3.5.3.9v1.1c0 .3-.1.6-.3.8-.2.2-.5.3-.8.3h-21.6v12.3H494c.8 0 1.1.4 1.1 1.1v1.1c0 .7-.4 1.1-1.1 1.1h-29.6c-.3 0-.6-.1-.7-.3-.2-.2-.2-.4-.2-.8V18c0-.5.1-.8.3-.9s.5-.2.8-.2h29v.1zm44 16.8c0 1.4-.2 2.8-.5 4.1-.3 1.4-.8 2.7-1.5 3.9-.7 1.2-1.5 2.4-2.4 3.4-1 1.1-2.1 2-3.3 2.7l5.8 12.2s0 .1.1.2v.3c0 .2-.1.4-.2.6-.1.2-.4.3-.6.3h-1.8c-.4 0-.7-.2-.9-.6l-5.4-11.4c-1.9.7-4 1.1-6.4 1.1h-12.2v9.8c0 .8-.4 1.1-1.2 1.1H506c-.8 0-1.1-.4-1.1-1.1V18.2c0-.3.1-.6.3-.9s.5-.4.7-.4h14.6c2.6 0 5 .5 7.1 1.4s3.9 2.2 5.4 3.8c1.5 1.6 2.6 3.4 3.4 5.4.8 2 1.2 4.1 1.2 6.3zm-17.1 13.3c2.2 0 4.1-.4 5.8-1.1 1.7-.8 3.1-1.7 4.3-3 1.2-1.2 2.1-2.7 2.7-4.3.6-1.6.9-3.3.9-5s-.3-3.4-.9-5c-.6-1.6-1.5-3-2.7-4.3s-2.6-2.3-4.3-3c-1.7-.8-3.6-1.1-5.8-1.1h-12.2v26.8h12.2zM549.2 18c0-.3.1-.6.3-.8.2-.2.5-.3.8-.3h1.1c.3 0 .6.1.8.3.2.2.3.5.3.8v42.4c0 .7-.4 1.1-1.1 1.1h-1.1c-.7 0-1.1-.4-1.1-1.1V18zm50 3.3c.3.2.5.5.5.8 0 .2-.1.4-.3.7 0 0-.1.1-.2.3-.1.1-.2.3-.4.5l-.5.5c-.2.1-.3.2-.5.2h-.3c-.1 0-.2-.1-.4-.2-1.7-1.3-3.6-2.4-5.5-3.1-2-.8-4.1-1.1-6.3-1.1-1.8 0-3.6.2-5.3.7s-3.3 1.1-4.7 2c-1.5.9-2.8 1.9-4 3.1s-2.2 2.5-3.1 4c-.9 1.5-1.5 3-2 4.6-.5 1.7-.7 3.4-.7 5.1 0 1.8.2 3.5.7 5.2s1.1 3.2 2 4.6 1.9 2.8 3.1 3.9c1.2 1.2 2.5 2.2 3.9 3s3 1.5 4.6 1.9c1.6.5 3.3.7 5.1.7 4.1 0 8.1-1.4 11.8-4.1l.8-.4c.2-.1.4-.1.5-.1s.3.1.5.2l.6.6c.2.2.3.5.4.7.1.3.2.5.2.7s-.1.3-.2.5c-.1.1-.2.3-.4.4-2 1.5-4.1 2.7-6.5 3.6-2.4.8-4.9 1.3-7.6 1.3-3.2 0-6.1-.6-8.9-1.8-2.8-1.2-5.2-2.8-7.2-4.9-2.1-2.1-3.7-4.5-4.9-7.3s-1.8-5.7-1.8-8.9c0-2.1.3-4.1.8-6.1.5-1.9 1.3-3.8 2.3-5.4s2.2-3.2 3.6-4.6c1.4-1.4 2.9-2.6 4.6-3.6 1.7-1 3.5-1.8 5.5-2.3 1.9-.5 4-.8 6.1-.8 2.7 0 5.2.4 7.6 1.3 2.3.9 4.5 2.1 6.5 3.6zm34.5 27.8c-1.1-1.9-2.3-3.8-3.5-5.8s-2.4-3.9-3.5-5.9l-3.2-5.3c-1.3 1.2-2.6 2.5-3.9 3.7s-2.5 2.5-3.9 3.7l-3.3 3v17.9c0 .8-.4 1.1-1.2 1.1h-1.1c-.8 0-1.1-.4-1.1-1.1V18.1c0-.3.1-.6.3-.8.2-.2.5-.3.9-.3h1.1c.3 0 .6.1.8.3.2.2.3.5.3.8v19.6l20.7-19.8c.3-.3.5-.5.8-.6.2-.1.5-.2.8-.3.3-.1.5-.1.9-.1h1.1s.8.1 1.1.2.5.3.5.7c0 .2-.1.3-.3.5l-12 11.3 18.1 30.3c.1.2.2.5.2.8 0 .6-.5.9-1.6.9-.3 0-.6 0-.9-.1-.3-.1-.6-.2-.7-.3-1.2-2-2.5-4.1-3.7-6.1-1.3-1.9-2.5-4-3.7-6zM305.5 87.6c.1-.2.2-.3.4-.5s.4-.2.8-.2c.3 0 .5.1.8.3.2.2.4.4.5.6l.3.6c.1.2.2.3.2.4l.5 1.2 9 21 9 21c0 .1 0 .2.1.3v.3c0 .6-.4.9-1.2.9H320c-.8 0-1.4-.4-1.6-1.1l-1.7-4.4h-19.9l-1.7 4.3c-.3.8-.9 1.2-1.7 1.2h-5.9c-.4 0-.8-.1-.9-.2-.2-.2-.3-.4-.3-.7v-.4c0-.1.1-.2.1-.3l9-21c3-6.9 6-13.9 9-21 .2-.4.3-.8.5-1.2.2-.3.4-.7.6-1.1zm1.2 14.5c-.1.4-.3.8-.4 1.1-.1.4-.3.8-.4 1.2l-6.6 16.7h14.8l-6.6-16.7c-.1-.4-.3-.8-.4-1.2s-.2-.7-.4-1.1zM356.1 89c1.6 0 3.2.2 4.7.6s2.9 1 4.2 1.8c1.3.8 2.5 1.7 3.6 2.7s2 2.3 2.8 3.6c.8 1.3 1.4 2.7 1.8 4.2s.6 3.1.6 4.7c0 1.4-.2 2.8-.5 4.1-.3 1.3-.8 2.5-1.4 3.7s-1.3 2.3-2.1 3.3-1.7 1.9-2.8 2.7l5.5 10.9.3.6c.1.2.2.4.2.6 0 .3-.1.5-.3.7s-.5.3-.8.3h-6.4c-.7 0-1.2-.4-1.5-1.1l-4.2-8.5c-.6.2-1.2.3-1.8.4-.6.1-1.3.2-1.9.2h-9v7.8c0 .9-.5 1.3-1.4 1.3h-5.5c-.9 0-1.3-.4-1.3-1.3V90.5c0-.9.4-1.4 1.3-1.4h15.9V89zm9.8 17.6c0-1.3-.2-2.5-.7-3.7s-1.1-2.2-1.9-3.2c-.8-.9-1.8-1.7-2.9-2.3-1.1-.6-2.3-1-3.6-1.2-.5-.1-1.1-.1-1.6-.2-.6 0-1.1-.1-1.7-.1h-6.4v21.2h8.6c1.4 0 2.8-.3 4-.8s2.3-1.3 3.2-2.2 1.6-2.1 2.1-3.4.9-2.6.9-4.1zm43 28.5c-.2 0-.5-.1-.8-.4s-.6-.7-.9-1.2l-12.6-24.4-2.4 23c0 .5-.2.8-.4 1-.2.2-.6.3-1 .3h-5.2c-.9 0-1.4-.4-1.4-1.2v-.1l4.3-43.3v-.3c0-.1.1-.3.1-.4l.3-.3c.1-.1.3-.1.5-.1.4 0 .7.2 1 .7 3.1 5.3 6.1 10.6 9.2 15.9 3 5.3 6.1 10.6 9.2 15.9 0 .1 0 .1.1.2.1-.1.1-.1.1-.2l1-2c2.9-5 5.8-10 8.7-14.9 2.9-4.9 5.8-9.9 8.7-14.9.3-.5.6-.7 1-.7.2 0 .4 0 .5.1l.3.3c.1.1.1.3.1.4v.3c.7 6.9 1.4 13.8 2 20.6s1.4 13.6 2.1 20.5l.2 2.3v.1c0 .4-.1.7-.4.9-.3.2-.6.3-1 .3H427c-.9 0-1.3-.5-1.4-1.4l-2.4-23-12.7 24.5c0 .1-.1.2-.2.3s-.2.3-.4.5c-.1.2-.3.3-.5.5s-.3.2-.5.2zm52.8-47.5c.1-.2.2-.3.4-.5s.4-.2.8-.2c.3 0 .5.1.8.3.2.2.4.4.5.6l.3.6s.2.3.2.4l.5 1.2 9 21 9 21c0 .1 0 .2.1.3s0 .2 0 .3c0 .6-.4.9-1.2.9h-5.9c-.8 0-1.4-.4-1.7-1.1l-1.7-4.4h-19.9l-1.7 4.3c-.3.8-.9 1.2-1.7 1.2h-5.9c-.4 0-.8-.1-.9-.2-.2-.2-.3-.4-.3-.7v-.4c0-.1.1-.2.1-.3l9-21c3-6.9 6-13.9 9-21 .2-.4.3-.8.5-1.2.3-.3.5-.7.7-1.1zm1.2 14.5c-.1.4-.3.8-.4 1.1s-.3.8-.4 1.2l-6.6 16.7h14.8l-6.6-16.7c-.1-.4-.3-.8-.4-1.2-.1-.4-.3-.7-.4-1.1zm40.3 3.9v26.1c0 .9-.5 1.4-1.4 1.4h-5.3c-.9 0-1.4-.5-1.4-1.4V88.4s0-.3.1-.4.2-.3.3-.4.3-.2.6-.2.6.1.8.4l28.4 29.5V90.5c0-1 .5-1.4 1.4-1.4h5.3c.9 0 1.4.5 1.4 1.4v43.8c0 .1 0 .3-.1.4s-.2.3-.3.4-.3.2-.6.2-.6-.1-.8-.4L503.2 106zm83.4 5.3c0 2.1-.3 4.1-.8 6s-1.3 3.7-2.3 5.3-2.1 3.1-3.5 4.5c-1.4 1.3-2.9 2.5-4.6 3.4-1.7 1-3.5 1.7-5.4 2.2s-3.9.8-6 .8h-14.4c-.4 0-.7-.1-1-.3-.3-.2-.4-.5-.4-1V90.4c0-.5.1-.8.3-1.1.2-.3.6-.4 1-.4H564c2.1 0 4.1.3 6 .8s3.7 1.3 5.4 2.2 3.2 2.1 4.6 3.5c1.4 1.4 2.5 2.9 3.5 4.5 1 1.7 1.7 3.4 2.3 5.4.5 1.9.8 3.9.8 6zm-30.2-14.6v29h3c1.6 0 3.2 0 4.8-.1 2-.1 3.9-.5 5.7-1.3 1.7-.8 3.2-1.8 4.5-3.1 1.3-1.3 2.3-2.8 3-4.6s1.1-3.6 1.1-5.6c0-2.1-.4-4.1-1.2-5.8-.8-1.8-1.9-3.3-3.2-4.5s-2.9-2.2-4.7-2.9c-1.8-.7-3.7-1-5.7-1h-7.3v-.1zm40.7 14.6c0-2.1.3-4.1.8-6.1s1.3-3.8 2.3-5.5 2.2-3.3 3.6-4.7c1.4-1.4 2.9-2.6 4.6-3.6s3.5-1.8 5.5-2.3 4-.8 6.1-.8 4.1.3 6.1.8c2 .6 3.8 1.3 5.5 2.3s3.3 2.2 4.7 3.6 2.6 3 3.6 4.7 1.8 3.5 2.3 5.5.8 4 .8 6.1-.3 4.2-.8 6.1c-.6 2-1.3 3.8-2.3 5.5s-2.2 3.2-3.6 4.6c-1.4 1.4-3 2.6-4.7 3.6s-3.5 1.8-5.5 2.3-4 .8-6.1.8-4.2-.3-6.1-.8-3.8-1.3-5.5-2.3-3.2-2.2-4.6-3.6c-1.4-1.4-2.6-2.9-3.6-4.6s-1.8-3.5-2.3-5.5-.8-4-.8-6.1zm8.2 0c0 2.1.4 4 1.1 5.8.8 1.8 1.8 3.4 3.1 4.7 1.3 1.4 2.9 2.4 4.7 3.2s3.7 1.2 5.8 1.2 4-.4 5.8-1.2 3.3-1.8 4.7-3.2c1.3-1.3 2.4-2.9 3.1-4.7.8-1.8 1.1-3.8 1.1-5.8 0-2.1-.4-4-1.1-5.8-.8-1.8-1.8-3.4-3.1-4.8s-2.9-2.4-4.7-3.2-3.7-1.2-5.8-1.2-4 .4-5.8 1.2-3.3 1.9-4.7 3.2-2.4 2.9-3.1 4.8c-.7 1.8-1.1 3.7-1.1 5.8z"/>
    </g>
    <path class="st2" d="M463.4 103.2c-.1-.4-.3-.8-.4-1.2-.1.4-.3.8-.4 1.1s-.3.8-.4 1.2l-6.6 16.7h14.8l-6.6-16.7c-.2-.3-.3-.7-.4-1.1zm-156.2.4c-.1-.4-.3-.8-.4-1.2-.1.4-.3.8-.4 1.1-.1.4-.3.8-.4 1.2l-6.6 16.7h14.8l-6.6-16.7c-.1-.3-.3-.7-.4-1.1zm266.9-3.1c-1.3-1.3-2.9-2.2-4.7-2.9-1.8-.7-3.7-1-5.7-1h-7.3l.1 29h3c1.6 0 3.2 0 4.8-.1 2-.1 3.9-.5 5.7-1.3 1.7-.8 3.2-1.8 4.5-3.1 1.3-1.3 2.3-2.8 3-4.6s1.1-3.6 1.1-5.6c0-2.1-.4-4.1-1.2-5.8-.9-1.8-2-3.4-3.3-4.6zm-43.6-76.1c-1.2-1.3-2.6-2.3-4.3-3-1.7-.8-3.6-1.1-5.8-1.1h-12.2l.1 26.8h12.2c2.2 0 4.1-.4 5.8-1.1 1.7-.8 3.1-1.8 4.3-3 1.2-1.3 2.1-2.7 2.7-4.3.6-1.6.9-3.3.9-5s-.3-3.4-.9-5c-.8-1.6-1.7-3.1-2.8-4.3zM350.8 46.3c1.7-.8 3.1-1.8 4.3-3 1.2-1.3 2.1-2.7 2.7-4.3.6-1.6.9-3.3.9-5s-.3-3.4-.9-5-1.5-3-2.7-4.3-2.6-2.3-4.3-3c-1.7-.8-3.6-1.1-5.8-1.1h-12.2l.1 26.8h12.2c2.1 0 4-.4 5.7-1.1zm12.5 53.7c-.8-.9-1.8-1.7-2.9-2.3-1.1-.6-2.3-1-3.6-1.2-.5-.1-1.1-.1-1.6-.2-.6 0-1.1-.1-1.7-.1h-6.4v21.2h8.6c1.4 0 2.8-.3 4-.8s2.3-1.3 3.2-2.2 1.6-2.1 2.1-3.4.8-2.7.8-4.2c0-1.3-.2-2.5-.7-3.7-.3-1.1-1-2.1-1.8-3.1zm85.6-55.8c.4-1.6.7-3.3.7-5.1 0-2.7-.5-5.2-1.5-7.5s-2.4-4.3-4.2-6-3.8-3-6.1-3.9c-2.3-.9-4.8-1.4-7.4-1.4h-11.9l.1 38.1h11.8c1.8 0 3.5-.2 5.2-.7s3.2-1.1 4.6-2c1.4-.8 2.7-1.9 3.9-3s2.2-2.5 3-3.9c.7-1.4 1.3-3 1.8-4.6zm181.6 56.1c-1.3-1.3-2.9-2.4-4.7-3.2-1.8-.8-3.7-1.2-5.8-1.2s-4 .4-5.8 1.2c-1.8.8-3.3 1.9-4.7 3.2-1.3 1.4-2.3 2.9-3.1 4.8-.7 1.8-1.1 3.8-1.1 5.8 0 2.1.4 4 1.1 5.8.8 1.8 1.8 3.4 3.1 4.7 1.3 1.3 2.9 2.4 4.7 3.2 1.8.8 3.7 1.2 5.8 1.2s4-.4 5.8-1.2c1.8-.8 3.3-1.9 4.7-3.2 1.3-1.4 2.4-2.9 3.1-4.7.8-1.8 1.1-3.8 1.1-5.8 0-2.1-.4-4-1.2-5.8-.6-1.9-1.6-3.4-3-4.8z"/>
    <path class="st2" d="M658.8 9.6l-381 .9.3 132 381-.9-.3-132zm-109.4 7.5c.2-.2.5-.3.8-.3h1.1c.3 0 .6.1.8.3.2.2.3.5.3.8l.1 42.4c0 .7-.4 1.1-1.1 1.1h-1.1c-.7 0-1.1-.4-1.1-1.1l-.1-42.4c0-.4.1-.6.3-.8zm-258.6.3l28.7-.1c.4 0 .6.1.9.3.2.2.3.5.3.9v1c0 .3-.1.6-.3.8-.2.2-.5.3-.9.3l-26.5.1.1 22.4h21.4c.3 0 .6.1.8.3.2.2.3.5.3.9v1.1c0 .3-.1.6-.3.8-.2.2-.5.3-.8.3h-21.4V61c0 .7-.4 1.1-1.1 1.1h-1.1c-.7 0-1.1-.3-1.1-1l-.1-42.4c.1-1 .4-1.3 1.1-1.3zm35.3 116.4h-5.9c-.8 0-1.4-.4-1.7-1.1l-1.7-4.4h-19.9l-1.7 4.4c-.3.8-.9 1.2-1.7 1.2h-5.9c-.4 0-.8-.1-.9-.2-.2-.2-.3-.4-.3-.7v-.4c0-.1.1-.2.1-.3 3-7 6-14 8.9-21 3-7 6-13.9 9-21 .2-.4.3-.8.5-1.2l.6-1.2c.1-.2.2-.3.4-.5s.4-.2.8-.2c.3 0 .5.1.8.3.2.2.4.4.5.6l.3.6c.1.2.2.3.2.4l.5 1.2c3.1 7 6.1 14 9.1 21l9 21c0 .1 0 .2.1.3v.3c.1.6-.3.9-1.1.9zm5.5-72h-1.1c-.8 0-1.1-.4-1.1-1.1l-.1-42.2c0-.3.1-.6.3-.9.2-.2.5-.4.7-.4h14.6c2.6 0 5 .5 7.1 1.4s3.9 2.2 5.4 3.8c1.5 1.6 2.6 3.4 3.4 5.4s1.2 4.1 1.2 6.3c0 1.4-.2 2.8-.5 4.1-.3 1.4-.8 2.7-1.5 3.9-.7 1.2-1.5 2.4-2.4 3.4-1 1.1-2.1 2-3.3 2.7l5.8 12.2s0 .1.1.2v.3c0 .2-.1.4-.2.6s-.4.3-.6.3h-1.8c-.4 0-.7-.2-.9-.6l-5.4-11.4c-1.9.7-4 1.1-6.4 1.1h-12.2v9.8c.1.8-.3 1.1-1.1 1.1zm41.9 49.2c-.3 1.3-.8 2.6-1.3 3.7-.6 1.2-1.3 2.3-2.1 3.3s-1.7 1.9-2.8 2.7l5.5 10.9.3.6c.1.2.2.4.2.6 0 .3-.1.5-.3.7-.2.2-.5.3-.8.3h-6.4c-.7 0-1.2-.4-1.5-1.1l-4.2-8.5c-.6.2-1.2.3-1.8.4-.6.1-1.3.2-1.9.2h-9v7.8c0 .9-.5 1.3-1.4 1.3h-5.5c-.9 0-1.3-.4-1.3-1.3l-.1-41.8c0-.9.4-1.4 1.3-1.4h16c1.6 0 3.2.2 4.7.6s2.9 1 4.2 1.8c1.3.8 2.5 1.7 3.6 2.7 1.1 1.1 2 2.3 2.8 3.6.8 1.3 1.4 2.7 1.8 4.2s.7 3.1.7 4.7c-.3 1.3-.4 2.7-.7 4zm.6-49.5c-.2-.2-.2-.4-.2-.8l-.1-42.4c0-.5.1-.8.3-.9.2-.1.5-.2.8-.2l28.9-.1c.8 0 1.1.4 1.1 1.1v1c0 .3-.1.6-.3.8-.2.2-.5.3-.9.3l-26.7.1.1 22.4h21.6c.3 0 .6.1.8.3.2.2.3.5.3.9v1.1c0 .3-.1.6-.3.8-.2.2-.5.3-.8.3h-21.6v12.3l27.2-.1c.8 0 1.1.4 1.1 1.1v1.1c0 .7-.4 1.1-1.1 1.1l-29.6.1c-.2-.1-.5-.2-.6-.3zm59.2 71.8c-.3.2-.6.3-1 .3h-5.2c-.9 0-1.3-.5-1.4-1.4l-2.4-23-12.6 24.5c0 .1-.1.2-.2.3s-.2.3-.4.5c-.1.2-.3.3-.5.5s-.4.2-.6.2-.5-.1-.8-.4-.6-.7-.9-1.2l-12.7-24.3-2.3 23c0 .5-.2.8-.4 1-.2.2-.6.3-1 .3h-5.2c-.9 0-1.4-.4-1.4-1.2v-.1l4.2-43.3v-.3c0-.1.1-.3.1-.4l.3-.3c.1-.1.3-.1.5-.1.4 0 .7.2 1 .7 3.1 5.3 6.2 10.6 9.2 15.9 3.1 5.3 6.1 10.6 9.2 15.9 0 .1 0 .1.1.2.1-.1.1-.1.1-.2l1-2c2.9-5 5.8-10 8.7-14.9 2.9-4.9 5.8-9.9 8.7-14.9.3-.5.6-.7 1-.7.2 0 .4 0 .5.1l.3.3c.1.1.1.3.1.4v.3c.7 6.9 1.4 13.7 2.1 20.5s1.4 13.6 2.1 20.5l.2 2.3v.1c0 .5-.1.7-.4.9zm3.1-72.5c-1.9.5-3.9.8-6 .8h-14.1c-.3 0-.5-.1-.8-.2s-.4-.4-.4-.7l-.1-42.5c0-.3.1-.6.3-.8.2-.2.4-.3.7-.3h14.5c2.1 0 4 .3 5.9.8s3.7 1.3 5.3 2.3c1.7 1 3.2 2.1 4.5 3.5 1.4 1.3 2.5 2.8 3.5 4.5 1 1.6 1.7 3.4 2.2 5.3s.8 3.9.8 5.9c0 2.1-.3 4-.8 5.9s-1.3 3.7-2.2 5.3c-1 1.7-2.1 3.2-3.5 4.5-1.4 1.4-2.9 2.5-4.5 3.5-1.6.9-3.4 1.7-5.3 2.2zm45.8 72.7h-5.9c-.8 0-1.4-.4-1.7-1.1l-1.7-4.4H453l-1.7 4.4c-.3.8-.9 1.2-1.7 1.2h-5.9c-.4 0-.8-.1-.9-.2-.2-.2-.3-.4-.3-.7v-.4c0-.1.1-.2.1-.3 3-7 6-14 8.9-21 3-7 6-13.9 9-21 .2-.4.3-.8.5-1.2l.6-1.2c.1-.2.2-.3.4-.5s.4-.2.8-.2c.3 0 .6.1.8.3.2.2.4.4.5.6l.3.6s.2.3.2.4l.5 1.2c3.1 7 6.1 14 9.1 21l9 21c0 .1 0 .2.1.3v.3c.1.6-.3.9-1.1.9zm11.9-72l-29.6.1c-.3 0-.6-.1-.7-.3-.2-.2-.2-.4-.2-.8l-.1-42.4c0-.5.1-.8.3-.9s.5-.2.8-.2l29-.1c.8 0 1.1.4 1.1 1.1v1c0 .3-.1.6-.3.8-.2.2-.5.3-.9.3l-26.7.1.1 22.4h21.6c.3 0 .6.1.8.3.2.2.3.5.3.9v1.1c0 .3-.1.6-.3.8-.2.2-.5.3-.8.3h-21.6v12.3l27.2-.1c.8 0 1.1.4 1.1 1.1v1.1c0 .7-.3 1.1-1.1 1.1zm39.4 72.7c0 .1 0 .3-.1.4s-.2.3-.3.4-.3.2-.6.2-.6-.1-.8-.4L503.2 106l.1 26.1c0 .9-.5 1.4-1.4 1.4h-5.3c-.9 0-1.4-.5-1.4-1.4l-.1-43.4v-.3c0-.2 0-.3.1-.4s.2-.3.3-.4.3-.2.6-.2.6.1.8.4l28.5 29.4-.1-26.8c0-1 .5-1.4 1.4-1.4h5.3c.9 0 1.4.5 1.4 1.4l.1 43.6c.1-.1.1 0 0 .2zm3.5-96.4c-.3 1.4-.8 2.7-1.5 3.9-.7 1.2-1.5 2.4-2.4 3.4-1 1.1-2.1 2-3.3 2.7l5.8 12.2s0 .1.1.2v.3c0 .2-.1.4-.2.6-.1.2-.4.3-.6.3h-1.8c-.4 0-.7-.2-.9-.6l-5.4-11.4c-1.9.7-4 1.1-6.4 1.1h-12.2v9.8c0 .8-.4 1.1-1.2 1.1h-1.1c-.8 0-1.1-.4-1.1-1.1l-.1-42.2c0-.3.1-.6.3-.9.2-.2.5-.4.7-.4h14.6c2.6 0 5 .5 7.1 1.4s3.9 2.2 5.4 3.8c1.5 1.6 2.6 3.4 3.4 5.4.8 2 1.2 4.1 1.2 6.3.1 1.3 0 2.7-.4 4.1zm48.8 79.2c-.5 1.9-1.3 3.7-2.3 5.3-1 1.6-2.1 3.1-3.5 4.5s-2.9 2.5-4.6 3.5c-1.7 1-3.5 1.7-5.4 2.2s-3.9.8-6 .8h-14.4c-.4 0-.7-.1-1-.3-.3-.2-.4-.5-.4-1l-.1-41.8c0-.5.1-.8.3-1.1.2-.3.6-.4 1-.4h14.4c2.1 0 4.1.3 6 .8s3.7 1.3 5.4 2.2c1.7 1 3.2 2.1 4.6 3.5 1.4 1.3 2.5 2.8 3.5 4.5 1 1.6 1.7 3.4 2.3 5.3.5 1.9.8 3.9.8 6 .2 2.1 0 4.1-.6 6zm-.8-55.1c-3.2 0-6.1-.6-8.9-1.8-2.8-1.2-5.2-2.8-7.3-4.9s-3.7-4.5-4.9-7.2c-1.2-2.8-1.8-5.7-1.8-8.9 0-2.1.3-4.1.8-6.1.5-1.9 1.3-3.8 2.3-5.5s2.2-3.2 3.6-4.6c1.4-1.4 2.9-2.6 4.6-3.6 1.7-1 3.5-1.8 5.5-2.3 1.9-.6 4-.8 6.1-.8 2.7 0 5.2.4 7.6 1.3 2.4.9 4.6 2.1 6.6 3.6.3.2.5.5.5.8 0 .2-.1.4-.3.7 0 0-.1.1-.2.3-.1.2-.2.3-.4.5-.1.2-.3.3-.5.5-.2.1-.3.2-.4.2h-.3c-.1 0-.2-.1-.4-.2-1.7-1.3-3.6-2.3-5.5-3.1-2-.7-4.1-1.1-6.3-1.1-1.8 0-3.6.2-5.3.7s-3.3 1.1-4.7 2c-1.5.9-2.8 1.9-4 3.1s-2.2 2.5-3.1 4c-.8 1.5-1.5 3-2 4.7s-.7 3.4-.7 5.1c0 1.8.2 3.5.7 5.2.5 1.6 1.1 3.2 2 4.6s1.9 2.7 3.1 3.9c1.2 1.2 2.5 2.2 4 3 1.4.8 3 1.5 4.6 1.9 1.6.5 3.3.7 5.1.7 4.1 0 8.1-1.4 11.8-4.1l.7-.4c.2-.1.4-.2.5-.2s.3.1.5.2l.6.6c.2.2.3.5.5.7.1.3.2.5.2.7s0 .3-.1.5c-.1.1-.2.3-.4.4-2 1.5-4.1 2.7-6.5 3.6-2.6.8-5.1 1.2-7.9 1.3zm57.2 55.1c-.5 2-1.3 3.8-2.3 5.5s-2.2 3.2-3.6 4.6c-1.4 1.4-2.9 2.6-4.6 3.6-1.7 1-3.5 1.8-5.5 2.3-1.9.5-4 .8-6.1.8s-4.2-.3-6.1-.8c-2-.5-3.8-1.3-5.5-2.3s-3.3-2.2-4.6-3.6c-1.4-1.4-2.6-2.9-3.6-4.6s-1.8-3.5-2.3-5.5c-.5-1.9-.8-4-.8-6.1s.3-4.1.8-6.1 1.3-3.8 2.3-5.5 2.2-3.3 3.6-4.7c1.4-1.4 2.9-2.6 4.6-3.6 1.7-1 3.5-1.8 5.5-2.3 1.9-.6 4-.8 6.1-.8s4.1.3 6.1.8 3.8 1.3 5.5 2.3 3.3 2.2 4.7 3.6 2.6 2.9 3.6 4.6 1.8 3.5 2.3 5.5c.6 2 .8 4 .8 6.1 0 2.2-.3 4.2-.9 6.2zm.4-55.8c-.3 0-.6 0-.9-.1-.3-.1-.6-.2-.7-.3-1.2-2-2.5-4.1-3.7-6.1s-2.4-4-3.7-6.1c-1.1-1.9-2.3-3.8-3.5-5.8s-2.4-3.9-3.5-5.9l-3.2-5.3c-1.3 1.2-2.6 2.5-3.9 3.7-1.3 1.2-2.5 2.5-3.9 3.7l-3.3 3v17.9c0 .8-.4 1.1-1.2 1.1H610c-.8 0-1.1-.4-1.1-1.1l-.1-42.3c0-.3.1-.6.3-.8.2-.2.5-.3.9-.3h1.1c.3 0 .6.1.8.3.2.2.3.5.3.8v19.6l20.7-19.8c.3-.3.5-.5.7-.6s.5-.2.7-.3c.3-.1.5-.1.9-.1h1.1c.4 0 .8.1 1.1.2s.5.3.5.7c0 .2-.1.3-.3.5l-11.9 11.3 18.2 30.3c.1.2.2.5.2.7.1.8-.4 1.1-1.5 1.1z"/>
  </g>
</svg>
