<?xml version="1.0" encoding="utf-8"?>
<!-- Generator: Adobe Illustrator 21.1.0, SVG Export Plug-In . SVG Version: 6.00 Build 0)  -->
<svg version="1.1" id="Calque_1" xmlns="http://www.w3.org/2000/svg" xmlns:xlink="http://www.w3.org/1999/xlink" x="0px" y="0px"
	 viewBox="0 0 800 800" style="enable-background:new 0 0 800 800;" xml:space="preserve">
<style type="text/css">
	.st0{fill:none;}
	.st1{fill:url(#SVGID_1_);}
	.st2{fill:#FFFFFF;}
	.st3{fill:url(#SVGID_2_);}
	.st4{fill:url(#SVGID_3_);}
	.st5{display:none;}
	.st6{display:inline;fill:none;}
	.st7{display:inline;}
</style>
<g id="Full_Cheat">
	<g>
		<rect x="27.5" y="243.5" class="st0" width="754" height="317"/>
		<path class="st0" d="M781,244v316H28V244H781 M782,243H27v318h755V243L782,243z"/>
	</g>
	<g>
		<g>
			<g>
				
					<linearGradient id="SVGID_1_" gradientUnits="userSpaceOnUse" x1="402.8481" y1="301.758" x2="674.731" y2="498.7813" gradientTransform="matrix(-0.9805 0 0 -1 1066.759 799.0127)">
					<stop  offset="0" style="stop-color:#9D44D6"/>
					<stop  offset="0.2861" style="stop-color:#7454D7"/>
					<stop  offset="0.771" style="stop-color:#336CD8"/>
					<stop  offset="1" style="stop-color:#1A76D8"/>
				</linearGradient>
				<rect x="355" y="337" class="st1" width="369" height="125"/>
			</g>
		</g>
	</g>
	<g>
		<polygon class="st2" points="256.8,400.6 237.5,367.2 312.9,367.2 331.9,334.2 180.3,334.2 256.1,465.5 293.6,400.6 		"/>
		<linearGradient id="SVGID_2_" gradientUnits="userSpaceOnUse" x1="256.1" y1="465.6" x2="256.1" y2="334.2">
			<stop  offset="0" style="stop-color:#9D44D6"/>
			<stop  offset="0.2861" style="stop-color:#7454D7"/>
			<stop  offset="0.771" style="stop-color:#336CD8"/>
			<stop  offset="1" style="stop-color:#1A76D8"/>
		</linearGradient>
		<path class="st3" d="M328.9,335.9l-17.1,29.6h-74.3h-3l1.5,2.6l19.3,33.4l0.5,0.9h1h33.8L256.1,462l-72.8-126.1H328.9
			 M331.9,334.2H180.3l75.8,131.4l37.5-64.9h-36.8l-19.3-33.4h75.3L331.9,334.2L331.9,334.2z"/>
	</g>
	<g>
		<polygon class="st2" points="81.8,465.3 119.8,465.3 120.8,465.3 139.7,432.6 177,432.6 195.9,465.3 233.5,465.3 157.7,334 		"/>
		<linearGradient id="SVGID_3_" gradientUnits="userSpaceOnUse" x1="157.6" y1="465.3" x2="157.6" y2="334">
			<stop  offset="0" style="stop-color:#9D44D6"/>
			<stop  offset="0.2861" style="stop-color:#7454D7"/>
			<stop  offset="0.771" style="stop-color:#336CD8"/>
			<stop  offset="1" style="stop-color:#1A76D8"/>
		</linearGradient>
		<path class="st4" d="M157.7,337.5l72.8,126.1h-33.6l-18.4-31.8l-0.5-0.9h-1h-37.3h-1l-0.5,0.9l-18.4,31.8l0,0H84.9L157.7,337.5
			 M157.7,334L81.8,465.3h37.9h1l18.9-32.7h37.3l18.9,32.7h37.6L157.7,334L157.7,334z"/>
	</g>
	<g class="st5">
		<rect x="332" y="341" class="st6" width="386" height="117"/>
		<path class="st7" d="M361.9,342c0-0.7,0.4-1.1,1.1-1.1h28.7c0.4,0,0.6,0.1,0.9,0.3s0.3,0.5,0.3,0.9v1c0,0.3-0.1,0.6-0.3,0.8
			c-0.2,0.2-0.5,0.3-0.9,0.3h-26.5v22.4h21.4c0.3,0,0.6,0.1,0.8,0.3c0.2,0.2,0.3,0.5,0.3,0.9v1.1c0,0.3-0.1,0.6-0.3,0.8
			c-0.2,0.2-0.5,0.3-0.8,0.3h-21.4v14.5c0,0.7-0.4,1-1.1,1H363c-0.7,0-1.1-0.3-1.1-1V342z"/>
		<path class="st7" d="M434.2,357.8c0,1.4-0.2,2.8-0.5,4.1c-0.3,1.4-0.8,2.7-1.5,3.9c-0.7,1.2-1.5,2.4-2.4,3.4c-1,1.1-2.1,2-3.3,2.7
			l5.8,12.2c0,0,0,0.1,0.1,0.2c0,0.1,0,0.2,0,0.3c0,0.2-0.1,0.4-0.2,0.6s-0.4,0.3-0.6,0.3h-1.8c-0.4,0-0.7-0.2-0.9-0.6l-5.4-11.4
			c-1.9,0.7-4,1.1-6.4,1.1h-12.2v9.8c0,0.8-0.4,1.1-1.2,1.1h-1.1c-0.8,0-1.1-0.4-1.1-1.1v-42.2c0-0.3,0.1-0.6,0.3-0.9
			c0.2-0.2,0.5-0.4,0.7-0.4h14.6c2.6,0,5,0.5,7.1,1.4s3.9,2.2,5.4,3.8c1.5,1.6,2.6,3.4,3.4,5.4C433.8,353.5,434.2,355.6,434.2,357.8
			z M417.1,371.1c2.2,0,4.1-0.4,5.8-1.1c1.7-0.8,3.1-1.7,4.3-3c1.2-1.2,2.1-2.7,2.7-4.3c0.6-1.6,0.9-3.3,0.9-5s-0.3-3.4-0.9-5
			s-1.5-3-2.7-4.3s-2.6-2.3-4.3-3c-1.7-0.8-3.6-1.1-5.8-1.1h-12.2v26.8H417.1z"/>
		<path class="st7" d="M475.9,341c0.8,0,1.1,0.4,1.1,1.1v1c0,0.3-0.1,0.6-0.3,0.8c-0.2,0.2-0.5,0.3-0.9,0.3h-26.7v22.4h21.6
			c0.3,0,0.6,0.1,0.8,0.3c0.2,0.2,0.3,0.5,0.3,0.9v1.1c0,0.3-0.1,0.6-0.3,0.8c-0.2,0.2-0.5,0.3-0.8,0.3h-21.6v12.3h27.2
			c0.8,0,1.1,0.4,1.1,1.1v1.1c0,0.7-0.4,1.1-1.1,1.1h-29.6c-0.3,0-0.6-0.1-0.7-0.3c-0.2-0.2-0.2-0.4-0.2-0.8V342
			c0-0.5,0.1-0.8,0.3-0.9c0.2-0.1,0.5-0.2,0.8-0.2h29L475.9,341L475.9,341z"/>
		<path class="st7" d="M487.2,342.1c0-0.3,0.1-0.6,0.3-0.8c0.2-0.2,0.4-0.3,0.7-0.3h14.5c2.1,0,4,0.3,5.9,0.8s3.7,1.3,5.3,2.3
			c1.6,1,3.1,2.1,4.5,3.5c1.3,1.3,2.5,2.8,3.5,4.5c0.9,1.6,1.7,3.4,2.2,5.3s0.8,3.9,0.8,5.9c0,2.1-0.3,4-0.8,5.9s-1.3,3.7-2.3,5.3
			c-1,1.6-2.1,3.1-3.5,4.5c-1.4,1.3-2.9,2.5-4.5,3.4c-1.7,1-3.4,1.7-5.4,2.2c-1.9,0.5-3.9,0.8-6,0.8h-14.1c-0.3,0-0.5-0.1-0.8-0.2
			s-0.4-0.4-0.4-0.7L487.2,342.1L487.2,342.1z M502.4,382.3c1.8,0,3.5-0.2,5.2-0.7s3.2-1.1,4.6-1.9c1.4-0.8,2.7-1.8,3.9-3
			s2.2-2.5,3-3.9s1.5-2.9,1.9-4.6c0.5-1.6,0.7-3.3,0.7-5.1c0-2.7-0.5-5.2-1.5-7.5s-2.4-4.3-4.2-6s-3.8-3-6.1-3.9s-4.8-1.4-7.4-1.4
			h-11.9v38.1h11.8L502.4,382.3L502.4,382.3z"/>
		<path class="st7" d="M565.6,341c0.8,0,1.1,0.4,1.1,1.1v1c0,0.3-0.1,0.6-0.3,0.8c-0.2,0.2-0.5,0.3-0.9,0.3h-26.7v22.4h21.6
			c0.3,0,0.6,0.1,0.8,0.3c0.2,0.2,0.3,0.5,0.3,0.9v1.1c0,0.3-0.1,0.6-0.3,0.8c-0.2,0.2-0.5,0.3-0.8,0.3h-21.6v12.3H566
			c0.8,0,1.1,0.4,1.1,1.1v1.1c0,0.7-0.4,1.1-1.1,1.1h-29.6c-0.3,0-0.6-0.1-0.7-0.3c-0.2-0.2-0.2-0.4-0.2-0.8V342
			c0-0.5,0.1-0.8,0.3-0.9s0.5-0.2,0.8-0.2h29V341z"/>
		<path class="st7" d="M609.6,357.8c0,1.4-0.2,2.8-0.5,4.1c-0.3,1.4-0.8,2.7-1.5,3.9c-0.7,1.2-1.5,2.4-2.4,3.4c-1,1.1-2.1,2-3.3,2.7
			l5.8,12.2c0,0,0,0.1,0.1,0.2c0,0.1,0,0.2,0,0.3c0,0.2-0.1,0.4-0.2,0.6c-0.1,0.2-0.4,0.3-0.6,0.3h-1.8c-0.4,0-0.7-0.2-0.9-0.6
			l-5.4-11.4c-1.9,0.7-4,1.1-6.4,1.1h-12.2v9.8c0,0.8-0.4,1.1-1.2,1.1H578c-0.8,0-1.1-0.4-1.1-1.1v-42.2c0-0.3,0.1-0.6,0.3-0.9
			s0.5-0.4,0.7-0.4h14.6c2.6,0,5,0.5,7.1,1.4s3.9,2.2,5.4,3.8c1.5,1.6,2.6,3.4,3.4,5.4C609.2,353.5,609.6,355.6,609.6,357.8z
			 M592.5,371.1c2.2,0,4.1-0.4,5.8-1.1c1.7-0.8,3.1-1.7,4.3-3c1.2-1.2,2.1-2.7,2.7-4.3c0.6-1.6,0.9-3.3,0.9-5s-0.3-3.4-0.9-5
			c-0.6-1.6-1.5-3-2.7-4.3s-2.6-2.3-4.3-3c-1.7-0.8-3.6-1.1-5.8-1.1h-12.2v26.8H592.5z"/>
		<path class="st7" d="M621.2,342c0-0.3,0.1-0.6,0.3-0.8c0.2-0.2,0.5-0.3,0.8-0.3h1.1c0.3,0,0.6,0.1,0.8,0.3
			c0.2,0.2,0.3,0.5,0.3,0.8v42.4c0,0.7-0.4,1.1-1.1,1.1h-1.1c-0.7,0-1.1-0.4-1.1-1.1V342z"/>
		<path class="st7" d="M671.2,345.3c0.3,0.2,0.5,0.5,0.5,0.8c0,0.2-0.1,0.4-0.3,0.7c0,0-0.1,0.1-0.2,0.3c-0.1,0.1-0.2,0.3-0.4,0.5
			s-0.3,0.3-0.5,0.5c-0.2,0.1-0.3,0.2-0.5,0.2l0,0h-0.1c-0.1,0-0.1,0-0.2,0c-0.1,0-0.2-0.1-0.4-0.2c-1.7-1.3-3.6-2.4-5.5-3.1
			c-2-0.8-4.1-1.1-6.3-1.1c-1.8,0-3.6,0.2-5.3,0.7s-3.3,1.1-4.7,2c-1.5,0.9-2.8,1.9-4,3.1s-2.2,2.5-3.1,4c-0.9,1.5-1.5,3-2,4.6
			c-0.5,1.7-0.7,3.4-0.7,5.1c0,1.8,0.2,3.5,0.7,5.2s1.1,3.2,2,4.6s1.9,2.8,3.1,3.9c1.2,1.2,2.5,2.2,3.9,3s3,1.5,4.6,1.9
			c1.6,0.5,3.3,0.7,5.1,0.7c4.1,0,8.1-1.4,11.8-4.1l0.8-0.4c0.2-0.1,0.4-0.1,0.5-0.1s0.3,0.1,0.5,0.2c0.2,0.2,0.4,0.4,0.6,0.6
			c0.2,0.2,0.3,0.5,0.4,0.7c0.1,0.3,0.2,0.5,0.2,0.7s-0.1,0.3-0.2,0.5c-0.1,0.1-0.2,0.3-0.4,0.4c-2,1.5-4.1,2.7-6.5,3.6
			c-2.4,0.8-4.9,1.3-7.6,1.3c-3.2,0-6.1-0.6-8.9-1.8c-2.8-1.2-5.2-2.8-7.2-4.9c-2.1-2.1-3.7-4.5-4.9-7.3s-1.8-5.7-1.8-8.9
			c0-2.1,0.3-4.1,0.8-6.1c0.5-1.9,1.3-3.8,2.3-5.4s2.2-3.2,3.6-4.6c1.4-1.4,2.9-2.6,4.6-3.6c1.7-1,3.5-1.8,5.5-2.3
			c1.9-0.5,4-0.8,6.1-0.8c2.7,0,5.2,0.4,7.6,1.3C667,342.6,669.2,343.8,671.2,345.3z"/>
		<path class="st7" d="M705.7,373.1c-1.1-1.9-2.3-3.8-3.5-5.8s-2.4-3.9-3.5-5.9l-3.2-5.3c-1.3,1.2-2.6,2.5-3.9,3.7s-2.5,2.5-3.9,3.7
			l-3.3,3v17.9c0,0.8-0.4,1.1-1.2,1.1h-1.1c-0.8,0-1.1-0.4-1.1-1.1v-42.3c0-0.3,0.1-0.6,0.3-0.8c0.2-0.2,0.5-0.3,0.9-0.3h1.1
			c0.3,0,0.6,0.1,0.8,0.3c0.2,0.2,0.3,0.5,0.3,0.8v19.6l20.7-19.8c0.3-0.3,0.5-0.5,0.8-0.6c0.2-0.1,0.5-0.2,0.8-0.3
			c0.3-0.1,0.5-0.1,0.9-0.1c0.3,0,0.7,0,1.1,0s0.8,0.1,1.1,0.2s0.5,0.3,0.5,0.7c0,0.2-0.1,0.3-0.3,0.5l-12,11.3l18.1,30.3
			c0.1,0.2,0.2,0.5,0.2,0.8c0,0.6-0.5,0.9-1.6,0.9c-0.3,0-0.6,0-0.9-0.1c-0.3-0.1-0.6-0.2-0.7-0.3c-1.2-2-2.5-4.1-3.7-6.1
			C708.1,377.2,706.9,375.1,705.7,373.1z"/>
		<path class="st7" d="M377.5,411.6c0.1-0.2,0.2-0.3,0.4-0.5c0.2-0.2,0.4-0.2,0.8-0.2c0.3,0,0.5,0.1,0.8,0.3
			c0.2,0.2,0.4,0.4,0.5,0.6s0.2,0.4,0.3,0.6c0.1,0.2,0.2,0.3,0.2,0.4l0.5,1.2c3,7,6,14,9,21s6,14,9,21c0,0.1,0,0.2,0.1,0.3
			c0,0.1,0,0.2,0,0.3c0,0.6-0.4,0.9-1.2,0.9H392c-0.8,0-1.4-0.4-1.6-1.1l-1.7-4.4h-19.9l-1.7,4.3c-0.3,0.8-0.9,1.2-1.7,1.2h-5.9
			c-0.4,0-0.8-0.1-0.9-0.2c-0.2-0.2-0.3-0.4-0.3-0.7c0-0.1,0-0.2,0-0.4c0-0.1,0.1-0.2,0.1-0.3c3-7,6-14,9-21c3-6.9,6-13.9,9-21
			c0.2-0.4,0.3-0.8,0.5-1.2C377.1,412.4,377.3,412,377.5,411.6z M378.7,426.1c-0.1,0.4-0.3,0.8-0.4,1.1c-0.1,0.4-0.3,0.8-0.4,1.2
			l-6.6,16.7h14.8l-6.6-16.7c-0.1-0.4-0.3-0.8-0.4-1.2S378.9,426.5,378.7,426.1z"/>
		<path class="st7" d="M428.1,413c1.6,0,3.2,0.2,4.7,0.6s2.9,1,4.2,1.8c1.3,0.8,2.5,1.7,3.6,2.7s2,2.3,2.8,3.6
			c0.8,1.3,1.4,2.7,1.8,4.2s0.6,3.1,0.6,4.7c0,1.4-0.2,2.8-0.5,4.1c-0.3,1.3-0.8,2.5-1.4,3.7s-1.3,2.3-2.1,3.3
			c-0.8,1-1.7,1.9-2.8,2.7l5.5,10.9c0.1,0.2,0.2,0.4,0.3,0.6c0.1,0.2,0.2,0.4,0.2,0.6c0,0.3-0.1,0.5-0.3,0.7s-0.5,0.3-0.8,0.3h-6.4
			c-0.7,0-1.2-0.4-1.5-1.1l-4.2-8.5c-0.6,0.2-1.2,0.3-1.8,0.4c-0.6,0.1-1.3,0.2-1.9,0.2h-9v7.8c0,0.9-0.5,1.3-1.4,1.3h-5.5
			c-0.9,0-1.3-0.4-1.3-1.3v-41.8c0-0.9,0.4-1.4,1.3-1.4h15.9L428.1,413L428.1,413z M437.9,430.6c0-1.3-0.2-2.5-0.7-3.7
			s-1.1-2.2-1.9-3.2c-0.8-0.9-1.8-1.7-2.9-2.3c-1.1-0.6-2.3-1-3.6-1.2c-0.5-0.1-1.1-0.1-1.6-0.2c-0.6,0-1.1-0.1-1.7-0.1h-6.4v21.2
			h8.6c1.4,0,2.8-0.3,4-0.8s2.3-1.3,3.2-2.2s1.6-2.1,2.1-3.4S437.9,432.1,437.9,430.6z"/>
		<path class="st7" d="M480.9,459.1c-0.2,0-0.5-0.1-0.8-0.4s-0.6-0.7-0.9-1.2l-12.6-24.4l-2.4,23c0,0.5-0.2,0.8-0.4,1
			c-0.2,0.2-0.6,0.3-1,0.3h-5.2c-0.9,0-1.4-0.4-1.4-1.2v-0.1l4.3-43.3c0-0.1,0-0.2,0-0.3c0-0.1,0.1-0.3,0.1-0.4
			c0.1-0.1,0.2-0.2,0.3-0.3c0.1-0.1,0.3-0.1,0.5-0.1c0.4,0,0.7,0.2,1,0.7c3.1,5.3,6.1,10.6,9.2,15.9c3,5.3,6.1,10.6,9.2,15.9
			c0,0.1,0,0.1,0.1,0.2c0.1-0.1,0.1-0.1,0.1-0.2l1-2c2.9-5,5.8-10,8.7-14.9c2.9-4.9,5.8-9.9,8.7-14.9c0.3-0.5,0.6-0.7,1-0.7
			c0.2,0,0.4,0,0.5,0.1s0.2,0.2,0.3,0.3c0.1,0.1,0.1,0.3,0.1,0.4s0,0.3,0,0.3c0.7,6.9,1.4,13.8,2,20.6s1.4,13.6,2.1,20.5l0.2,2.3
			v0.1c0,0.4-0.1,0.7-0.4,0.9c-0.3,0.2-0.6,0.3-1,0.3H499c-0.9,0-1.3-0.5-1.4-1.4l-2.4-23l-12.7,24.5c0,0.1-0.1,0.2-0.2,0.3
			s-0.2,0.3-0.4,0.5c-0.1,0.2-0.3,0.3-0.5,0.5S481.1,459.1,480.9,459.1z"/>
		<path class="st7" d="M533.7,411.6c0.1-0.2,0.2-0.3,0.4-0.5s0.4-0.2,0.8-0.2c0.3,0,0.5,0.1,0.8,0.3c0.2,0.2,0.4,0.4,0.5,0.6
			s0.2,0.4,0.3,0.6s0.2,0.3,0.2,0.4l0.5,1.2c3,7,6,14,9,21s6,14,9,21c0,0.1,0,0.2,0.1,0.3s0,0.2,0,0.3c0,0.6-0.4,0.9-1.2,0.9h-5.9
			c-0.8,0-1.4-0.4-1.7-1.1l-1.7-4.4h-19.9l-1.7,4.3c-0.3,0.8-0.9,1.2-1.7,1.2h-5.9c-0.4,0-0.8-0.1-0.9-0.2c-0.2-0.2-0.3-0.4-0.3-0.7
			c0-0.1,0-0.2,0-0.4c0-0.1,0.1-0.2,0.1-0.3c3-7,6-14,9-21c3-6.9,6-13.9,9-21c0.2-0.4,0.3-0.8,0.5-1.2
			C533.3,412.4,533.5,412,533.7,411.6z M534.9,426.1c-0.1,0.4-0.3,0.8-0.4,1.1s-0.3,0.8-0.4,1.2l-6.6,16.7h14.8l-6.6-16.7
			c-0.1-0.4-0.3-0.8-0.4-1.2C535.2,426.8,535,426.5,534.9,426.1z"/>
		<path class="st7" d="M575.2,430v26.1c0,0.9-0.5,1.4-1.4,1.4h-5.3c-0.9,0-1.4-0.5-1.4-1.4v-43.4c0-0.1,0-0.2,0-0.3s0-0.3,0.1-0.4
			s0.2-0.3,0.3-0.4s0.3-0.2,0.6-0.2s0.6,0.1,0.8,0.4l28.4,29.5v-26.8c0-1,0.5-1.4,1.4-1.4h5.3c0.9,0,1.4,0.5,1.4,1.4V458
			c0,0.1,0,0.2,0,0.3c0,0.1,0,0.3-0.1,0.4s-0.2,0.3-0.3,0.4s-0.3,0.2-0.6,0.2s-0.6-0.1-0.8-0.4L575.2,430z"/>
		<path class="st7" d="M658.6,435.3c0,2.1-0.3,4.1-0.8,6s-1.3,3.7-2.3,5.3s-2.1,3.1-3.5,4.5c-1.4,1.3-2.9,2.5-4.6,3.4
			c-1.7,1-3.5,1.7-5.4,2.2s-3.9,0.8-6,0.8h-14.4c-0.4,0-0.7-0.1-1-0.3c-0.3-0.2-0.4-0.5-0.4-1v-41.8c0-0.5,0.1-0.8,0.3-1.1
			c0.2-0.3,0.6-0.4,1-0.4H636c2.1,0,4.1,0.3,6,0.8s3.7,1.3,5.4,2.2s3.2,2.1,4.6,3.5c1.4,1.4,2.5,2.9,3.5,4.5c1,1.7,1.7,3.4,2.3,5.4
			C658.3,431.2,658.6,433.2,658.6,435.3z M628.4,420.7v29h3c1.6,0,3.2,0,4.8-0.1c2-0.1,3.9-0.5,5.7-1.3c1.7-0.8,3.2-1.8,4.5-3.1
			c1.3-1.3,2.3-2.8,3-4.6s1.1-3.6,1.1-5.6c0-2.1-0.4-4.1-1.2-5.8c-0.8-1.8-1.9-3.3-3.2-4.5s-2.9-2.2-4.7-2.9c-1.8-0.7-3.7-1-5.7-1
			h-7.3L628.4,420.7L628.4,420.7z"/>
		<path class="st7" d="M669.1,435.3c0-2.1,0.3-4.1,0.8-6.1s1.3-3.8,2.3-5.5s2.2-3.3,3.6-4.7c1.4-1.4,2.9-2.6,4.6-3.6
			s3.5-1.8,5.5-2.3s4-0.8,6.1-0.8s4.1,0.3,6.1,0.8c2,0.6,3.8,1.3,5.5,2.3s3.3,2.2,4.7,3.6s2.6,3,3.6,4.7s1.8,3.5,2.3,5.5
			s0.8,4,0.8,6.1s-0.3,4.2-0.8,6.1c-0.6,2-1.3,3.8-2.3,5.5s-2.2,3.2-3.6,4.6c-1.4,1.4-3,2.6-4.7,3.6s-3.5,1.8-5.5,2.3
			s-4,0.8-6.1,0.8s-4.2-0.3-6.1-0.8s-3.8-1.3-5.5-2.3s-3.2-2.2-4.6-3.6c-1.4-1.4-2.6-2.9-3.6-4.6s-1.8-3.5-2.3-5.5
			S669.1,437.4,669.1,435.3z M677.3,435.3c0,2.1,0.4,4,1.1,5.8c0.8,1.8,1.8,3.4,3.1,4.7c1.3,1.4,2.9,2.4,4.7,3.2s3.7,1.2,5.8,1.2
			s4-0.4,5.8-1.2s3.3-1.8,4.7-3.2c1.3-1.3,2.4-2.9,3.1-4.7c0.8-1.8,1.1-3.8,1.1-5.8c0-2.1-0.4-4-1.1-5.8c-0.8-1.8-1.8-3.4-3.1-4.8
			s-2.9-2.4-4.7-3.2s-3.7-1.2-5.8-1.2s-4,0.4-5.8,1.2s-3.3,1.9-4.7,3.2s-2.4,2.9-3.1,4.8C677.7,431.3,677.3,433.2,677.3,435.3z"/>
	</g>
	<g>
		<path class="st2" d="M535.4,427.2c-0.1-0.4-0.3-0.8-0.4-1.2c-0.1,0.4-0.3,0.8-0.4,1.1s-0.3,0.8-0.4,1.2l-6.6,16.7h14.8l-6.6-16.7
			C535.6,428,535.5,427.6,535.4,427.2z"/>
		<path class="st2" d="M379.2,427.6c-0.1-0.4-0.3-0.8-0.4-1.2c-0.1,0.4-0.3,0.8-0.4,1.1c-0.1,0.4-0.3,0.8-0.4,1.2l-6.6,16.7h14.8
			l-6.6-16.7C379.5,428.4,379.3,428,379.2,427.6z"/>
		<path class="st2" d="M646.1,424.5c-1.3-1.3-2.9-2.2-4.7-2.9c-1.8-0.7-3.7-1-5.7-1h-7.3l0.1,29h3c1.6,0,3.2,0,4.8-0.1
			c2-0.1,3.9-0.5,5.7-1.3c1.7-0.8,3.2-1.8,4.5-3.1c1.3-1.3,2.3-2.8,3-4.6s1.1-3.6,1.1-5.6c0-2.1-0.4-4.1-1.2-5.8
			C648.5,427.3,647.4,425.7,646.1,424.5z"/>
		<path class="st2" d="M602.5,348.4c-1.2-1.3-2.6-2.3-4.3-3c-1.7-0.8-3.6-1.1-5.8-1.1h-12.2l0.1,26.8h12.2c2.2,0,4.1-0.4,5.8-1.1
			c1.7-0.8,3.1-1.8,4.3-3c1.2-1.3,2.1-2.7,2.7-4.3c0.6-1.6,0.9-3.3,0.9-5s-0.3-3.4-0.9-5C604.5,351.1,603.6,349.6,602.5,348.4z"/>
		<path class="st2" d="M422.8,370.3c1.7-0.8,3.1-1.8,4.3-3c1.2-1.3,2.1-2.7,2.7-4.3c0.6-1.6,0.9-3.3,0.9-5s-0.3-3.4-0.9-5
			s-1.5-3-2.7-4.3s-2.6-2.3-4.3-3c-1.7-0.8-3.6-1.1-5.8-1.1h-12.2l0.1,26.8h12.2C419.2,371.4,421.1,371,422.8,370.3z"/>
		<path class="st2" d="M435.3,424c-0.8-0.9-1.8-1.7-2.9-2.3c-1.1-0.6-2.3-1-3.6-1.2c-0.5-0.1-1.1-0.1-1.6-0.2
			c-0.6,0-1.1-0.1-1.7-0.1h-6.4v21.2h8.6c1.4,0,2.8-0.3,4-0.8s2.3-1.3,3.2-2.2s1.6-2.1,2.1-3.4s0.8-2.7,0.8-4.2
			c0-1.3-0.2-2.5-0.7-3.7C436.8,426,436.1,425,435.3,424z"/>
		<path class="st2" d="M520.9,368.2c0.4-1.6,0.7-3.3,0.7-5.1c0-2.7-0.5-5.2-1.5-7.5s-2.4-4.3-4.2-6s-3.8-3-6.1-3.9
			c-2.3-0.9-4.8-1.4-7.4-1.4h-11.9l0.1,38.1h11.8c1.8,0,3.5-0.2,5.2-0.7s3.2-1.1,4.6-2c1.4-0.8,2.7-1.9,3.9-3s2.2-2.5,3-3.9
			C519.8,371.4,520.4,369.8,520.9,368.2z"/>
		<path class="st2" d="M702.5,424.3c-1.3-1.3-2.9-2.4-4.7-3.2c-1.8-0.8-3.7-1.2-5.8-1.2s-4,0.4-5.8,1.2c-1.8,0.8-3.3,1.9-4.7,3.2
			c-1.3,1.4-2.3,2.9-3.1,4.8c-0.7,1.8-1.1,3.8-1.1,5.8c0,2.1,0.4,4,1.1,5.8c0.8,1.8,1.8,3.4,3.1,4.7c1.3,1.3,2.9,2.4,4.7,3.2
			c1.8,0.8,3.7,1.2,5.8,1.2s4-0.4,5.8-1.2c1.8-0.8,3.3-1.9,4.7-3.2c1.3-1.4,2.4-2.9,3.1-4.7c0.8-1.8,1.1-3.8,1.1-5.8
			c0-2.1-0.4-4-1.2-5.8C704.9,427.2,703.9,425.7,702.5,424.3z"/>
		<path class="st2" d="M730.8,333.6l-381,0.9l0.3,132l381-0.9L730.8,333.6z M621.4,341.1c0.2-0.2,0.5-0.3,0.8-0.3h1.1
			c0.3,0,0.6,0.1,0.8,0.3c0.2,0.2,0.3,0.5,0.3,0.8l0.1,42.4c0,0.7-0.4,1.1-1.1,1.1h-1.1c-0.7,0-1.1-0.4-1.1-1.1l-0.1-42.4
			C621.1,341.5,621.2,341.3,621.4,341.1z M362.8,341.4l28.7-0.1c0.4,0,0.6,0.1,0.9,0.3c0.2,0.2,0.3,0.5,0.3,0.9v1
			c0,0.3-0.1,0.6-0.3,0.8c-0.2,0.2-0.5,0.3-0.9,0.3l-26.5,0.1l0.1,22.4h21.4c0.3,0,0.6,0.1,0.8,0.3c0.2,0.2,0.3,0.5,0.3,0.9v1.1
			c0,0.3-0.1,0.6-0.3,0.8c-0.2,0.2-0.5,0.3-0.8,0.3h-21.4V385c0,0.7-0.4,1.1-1.1,1.1h-1.1c-0.7,0-1.1-0.3-1.1-1l-0.1-42.4
			C361.8,341.7,362.1,341.4,362.8,341.4z M398.1,457.8h-5.9c-0.8,0-1.4-0.4-1.7-1.1l-1.7-4.4h-19.9l-1.7,4.4
			c-0.3,0.8-0.9,1.2-1.7,1.2h-5.9c-0.4,0-0.8-0.1-0.9-0.2c-0.2-0.2-0.3-0.4-0.3-0.7c0-0.1,0-0.2,0-0.4c0-0.1,0.1-0.2,0.1-0.3
			c3-7,6-14,8.9-21c3-7,6-13.9,9-21c0.2-0.4,0.3-0.8,0.5-1.2c0.2-0.4,0.4-0.8,0.6-1.2c0.1-0.2,0.2-0.3,0.4-0.5
			c0.2-0.2,0.4-0.2,0.8-0.2c0.3,0,0.5,0.1,0.8,0.3c0.2,0.2,0.4,0.4,0.5,0.6s0.2,0.4,0.3,0.6c0.1,0.2,0.2,0.3,0.2,0.4l0.5,1.2
			c3.1,7,6.1,14,9.1,21s6,14,9,21c0,0.1,0,0.2,0.1,0.3c0,0.1,0,0.2,0,0.3C399.3,457.5,398.9,457.8,398.1,457.8z M403.6,385.8h-1.1
			c-0.8,0-1.1-0.4-1.1-1.1l-0.1-42.2c0-0.3,0.1-0.6,0.3-0.9c0.2-0.2,0.5-0.4,0.7-0.4h14.6c2.6,0,5,0.5,7.1,1.4s3.9,2.2,5.4,3.8
			c1.5,1.6,2.6,3.4,3.4,5.4s1.2,4.1,1.2,6.3c0,1.4-0.2,2.8-0.5,4.1c-0.3,1.4-0.8,2.7-1.5,3.9c-0.7,1.2-1.5,2.4-2.4,3.4
			c-1,1.1-2.1,2-3.3,2.7l5.8,12.2c0,0,0,0.1,0.1,0.2c0,0.1,0,0.2,0,0.3c0,0.2-0.1,0.4-0.2,0.6s-0.4,0.3-0.6,0.3h-1.8
			c-0.4,0-0.7-0.2-0.9-0.6l-5.4-11.4c-1.9,0.7-4,1.1-6.4,1.1h-12.2v9.8C404.8,385.5,404.4,385.8,403.6,385.8z M445.5,435
			c-0.3,1.3-0.8,2.6-1.3,3.7c-0.6,1.2-1.3,2.3-2.1,3.3c-0.8,1-1.7,1.9-2.8,2.7l5.5,10.9c0.1,0.2,0.2,0.4,0.3,0.6
			c0.1,0.2,0.2,0.4,0.2,0.6c0,0.3-0.1,0.5-0.3,0.7c-0.2,0.2-0.5,0.3-0.8,0.3h-6.4c-0.7,0-1.2-0.4-1.5-1.1l-4.2-8.5
			c-0.6,0.2-1.2,0.3-1.8,0.4c-0.6,0.1-1.3,0.2-1.9,0.2h-9v7.8c0,0.9-0.5,1.3-1.4,1.3h-5.5c-0.9,0-1.3-0.4-1.3-1.3l-0.1-41.8
			c0-0.9,0.4-1.4,1.3-1.4h16c1.6,0,3.2,0.2,4.7,0.6s2.9,1,4.2,1.8c1.3,0.8,2.5,1.7,3.6,2.7c1.1,1.1,2,2.3,2.8,3.6
			c0.8,1.3,1.4,2.7,1.8,4.2s0.7,3.1,0.7,4.7C445.9,432.3,445.8,433.7,445.5,435z M446.1,385.5c-0.2-0.2-0.2-0.4-0.2-0.8l-0.1-42.4
			c0-0.5,0.1-0.8,0.3-0.9c0.2-0.1,0.5-0.2,0.8-0.2l28.9-0.1c0.8,0,1.1,0.4,1.1,1.1v1c0,0.3-0.1,0.6-0.3,0.8
			c-0.2,0.2-0.5,0.3-0.9,0.3l-26.7,0.1l0.1,22.4h21.6c0.3,0,0.6,0.1,0.8,0.3c0.2,0.2,0.3,0.5,0.3,0.9v1.1c0,0.3-0.1,0.6-0.3,0.8
			c-0.2,0.2-0.5,0.3-0.8,0.3h-21.6v12.3l27.2-0.1c0.8,0,1.1,0.4,1.1,1.1v1.1c0,0.7-0.4,1.1-1.1,1.1l-29.6,0.1
			C446.5,385.7,446.2,385.6,446.1,385.5z M505.3,457.3c-0.3,0.2-0.6,0.3-1,0.3h-5.2c-0.9,0-1.3-0.5-1.4-1.4l-2.4-23l-12.6,24.5
			c0,0.1-0.1,0.2-0.2,0.3s-0.2,0.3-0.4,0.5c-0.1,0.2-0.3,0.3-0.5,0.5s-0.4,0.2-0.6,0.2s-0.5-0.1-0.8-0.4s-0.6-0.7-0.9-1.2
			l-12.7-24.3l-2.3,23c0,0.5-0.2,0.8-0.4,1c-0.2,0.2-0.6,0.3-1,0.3h-5.2c-0.9,0-1.4-0.4-1.4-1.2v-0.1l4.2-43.3c0-0.1,0-0.2,0-0.3
			c0-0.1,0.1-0.3,0.1-0.4c0.1-0.1,0.2-0.2,0.3-0.3c0.1-0.1,0.3-0.1,0.5-0.1c0.4,0,0.7,0.2,1,0.7c3.1,5.3,6.2,10.6,9.2,15.9
			c3.1,5.3,6.1,10.6,9.2,15.9c0,0.1,0,0.1,0.1,0.2c0.1-0.1,0.1-0.1,0.1-0.2l1-2c2.9-5,5.8-10,8.7-14.9c2.9-4.9,5.8-9.9,8.7-14.9
			c0.3-0.5,0.6-0.7,1-0.7c0.2,0,0.4,0,0.5,0.1s0.2,0.2,0.3,0.3c0.1,0.1,0.1,0.3,0.1,0.4s0,0.3,0,0.3c0.7,6.9,1.4,13.7,2.1,20.5
			s1.4,13.6,2.1,20.5l0.2,2.3v0.1C505.7,456.9,505.6,457.1,505.3,457.3z M508.4,384.8c-1.9,0.5-3.9,0.8-6,0.8h-14.1
			c-0.3,0-0.5-0.1-0.8-0.2s-0.4-0.4-0.4-0.7l-0.1-42.5c0-0.3,0.1-0.6,0.3-0.8c0.2-0.2,0.4-0.3,0.7-0.3h14.5c2.1,0,4,0.3,5.9,0.8
			s3.7,1.3,5.3,2.3c1.7,1,3.2,2.1,4.5,3.5c1.4,1.3,2.5,2.8,3.5,4.5c1,1.6,1.7,3.4,2.2,5.3s0.8,3.9,0.8,5.9c0,2.1-0.3,4-0.8,5.9
			s-1.3,3.7-2.2,5.3c-1,1.7-2.1,3.2-3.5,4.5c-1.4,1.4-2.9,2.5-4.5,3.5C512.1,383.5,510.3,384.3,508.4,384.8z M554.2,457.5h-5.9
			c-0.8,0-1.4-0.4-1.7-1.1l-1.7-4.4H525l-1.7,4.4c-0.3,0.8-0.9,1.2-1.7,1.2h-5.9c-0.4,0-0.8-0.1-0.9-0.2c-0.2-0.2-0.3-0.4-0.3-0.7
			c0-0.1,0-0.2,0-0.4c0-0.1,0.1-0.2,0.1-0.3c3-7,6-14,8.9-21c3-7,6-13.9,9-21c0.2-0.4,0.3-0.8,0.5-1.2c0.2-0.4,0.4-0.8,0.6-1.2
			c0.1-0.2,0.2-0.3,0.4-0.5s0.4-0.2,0.8-0.2c0.3,0,0.6,0.1,0.8,0.3c0.2,0.2,0.4,0.4,0.5,0.6s0.2,0.4,0.3,0.6s0.2,0.3,0.2,0.4
			l0.5,1.2c3.1,7,6.1,14,9.1,21s6,14,9,21c0,0.1,0,0.2,0.1,0.3c0,0.1,0,0.2,0,0.3C555.4,457.2,555,457.5,554.2,457.5z M566.1,385.5
			l-29.6,0.1c-0.3,0-0.6-0.1-0.7-0.3c-0.2-0.2-0.2-0.4-0.2-0.8l-0.1-42.4c0-0.5,0.1-0.8,0.3-0.9s0.5-0.2,0.8-0.2l29-0.1
			c0.8,0,1.1,0.4,1.1,1.1v1c0,0.3-0.1,0.6-0.3,0.8c-0.2,0.2-0.5,0.3-0.9,0.3l-26.7,0.1l0.1,22.4h21.6c0.3,0,0.6,0.1,0.8,0.3
			c0.2,0.2,0.3,0.5,0.3,0.9v1.1c0,0.3-0.1,0.6-0.3,0.8c-0.2,0.2-0.5,0.3-0.8,0.3h-21.6v12.3l27.2-0.1c0.8,0,1.1,0.4,1.1,1.1v1.1
			C567.2,385.1,566.9,385.5,566.1,385.5z M605.5,458.2c0,0.1,0,0.3-0.1,0.4s-0.2,0.3-0.3,0.4s-0.3,0.2-0.6,0.2s-0.6-0.1-0.8-0.4
			L575.2,430l0.1,26.1c0,0.9-0.5,1.4-1.4,1.4h-5.3c-0.9,0-1.4-0.5-1.4-1.4l-0.1-43.4c0-0.1,0-0.2,0-0.3c0-0.2,0-0.3,0.1-0.4
			s0.2-0.3,0.3-0.4s0.3-0.2,0.6-0.2s0.6,0.1,0.8,0.4l28.5,29.4l-0.1-26.8c0-1,0.5-1.4,1.4-1.4h5.3c0.9,0,1.4,0.5,1.4,1.4l0.1,43.6
			C605.6,457.9,605.6,458,605.5,458.2z M609,361.8c-0.3,1.4-0.8,2.7-1.5,3.9c-0.7,1.2-1.5,2.4-2.4,3.4c-1,1.1-2.1,2-3.3,2.7
			l5.8,12.2c0,0,0,0.1,0.1,0.2c0,0.1,0,0.2,0,0.3c0,0.2-0.1,0.4-0.2,0.6c-0.1,0.2-0.4,0.3-0.6,0.3h-1.8c-0.4,0-0.7-0.2-0.9-0.6
			l-5.4-11.4c-1.9,0.7-4,1.1-6.4,1.1h-12.2v9.8c0,0.8-0.4,1.1-1.2,1.1h-1.1c-0.8,0-1.1-0.4-1.1-1.1l-0.1-42.2c0-0.3,0.1-0.6,0.3-0.9
			c0.2-0.2,0.5-0.4,0.7-0.4h14.6c2.6,0,5,0.5,7.1,1.4s3.9,2.2,5.4,3.8c1.5,1.6,2.6,3.4,3.4,5.4c0.8,2,1.2,4.1,1.2,6.3
			C609.5,359,609.4,360.4,609,361.8z M657.8,441c-0.5,1.9-1.3,3.7-2.3,5.3c-1,1.6-2.1,3.1-3.5,4.5s-2.9,2.5-4.6,3.5
			c-1.7,1-3.5,1.7-5.4,2.2s-3.9,0.8-6,0.8h-14.4c-0.4,0-0.7-0.1-1-0.3c-0.3-0.2-0.4-0.5-0.4-1l-0.1-41.8c0-0.5,0.1-0.8,0.3-1.1
			c0.2-0.3,0.6-0.4,1-0.4h14.4c2.1,0,4.1,0.3,6,0.8s3.7,1.3,5.4,2.2c1.7,1,3.2,2.1,4.6,3.5c1.4,1.3,2.5,2.8,3.5,4.5
			c1,1.6,1.7,3.4,2.3,5.3c0.5,1.9,0.8,3.9,0.8,6C658.6,437.1,658.4,439.1,657.8,441z M657,385.9c-3.2,0-6.1-0.6-8.9-1.8
			c-2.8-1.2-5.2-2.8-7.3-4.9s-3.7-4.5-4.9-7.2c-1.2-2.8-1.8-5.7-1.8-8.9c0-2.1,0.3-4.1,0.8-6.1c0.5-1.9,1.3-3.8,2.3-5.5
			s2.2-3.2,3.6-4.6c1.4-1.4,2.9-2.6,4.6-3.6c1.7-1,3.5-1.8,5.5-2.3c1.9-0.6,4-0.8,6.1-0.8c2.7,0,5.2,0.4,7.6,1.3
			c2.4,0.9,4.6,2.1,6.6,3.6c0.3,0.2,0.5,0.5,0.5,0.8c0,0.2-0.1,0.4-0.3,0.7c0,0-0.1,0.1-0.2,0.3c-0.1,0.2-0.2,0.3-0.4,0.5
			c-0.1,0.2-0.3,0.3-0.5,0.5c-0.2,0.1-0.3,0.2-0.4,0.2l0,0h-0.1c-0.1,0-0.1,0-0.2,0c-0.1,0-0.2-0.1-0.4-0.2
			c-1.7-1.3-3.6-2.3-5.5-3.1c-2-0.7-4.1-1.1-6.3-1.1c-1.8,0-3.6,0.2-5.3,0.7s-3.3,1.1-4.7,2c-1.5,0.9-2.8,1.9-4,3.1s-2.2,2.5-3.1,4
			c-0.8,1.5-1.5,3-2,4.7s-0.7,3.4-0.7,5.1c0,1.8,0.2,3.5,0.7,5.2c0.5,1.6,1.1,3.2,2,4.6s1.9,2.7,3.1,3.9c1.2,1.2,2.5,2.2,4,3
			c1.4,0.8,3,1.5,4.6,1.9c1.6,0.5,3.3,0.7,5.1,0.7c4.1,0,8.1-1.4,11.8-4.1l0.7-0.4c0.2-0.1,0.4-0.2,0.5-0.2s0.3,0.1,0.5,0.2
			c0.2,0.2,0.4,0.4,0.6,0.6c0.2,0.2,0.3,0.5,0.5,0.7c0.1,0.3,0.2,0.5,0.2,0.7s0,0.3-0.1,0.5c-0.1,0.1-0.2,0.3-0.4,0.4
			c-2,1.5-4.1,2.7-6.5,3.6C662.3,385.4,659.8,385.8,657,385.9z M714.2,441c-0.5,2-1.3,3.8-2.3,5.5s-2.2,3.2-3.6,4.6
			c-1.4,1.4-2.9,2.6-4.6,3.6c-1.7,1-3.5,1.8-5.5,2.3c-1.9,0.5-4,0.8-6.1,0.8s-4.2-0.3-6.1-0.8c-2-0.5-3.8-1.3-5.5-2.3
			s-3.3-2.2-4.6-3.6c-1.4-1.4-2.6-2.9-3.6-4.6s-1.8-3.5-2.3-5.5c-0.5-1.9-0.8-4-0.8-6.1s0.3-4.1,0.8-6.1s1.3-3.8,2.3-5.5
			s2.2-3.3,3.6-4.7c1.4-1.4,2.9-2.6,4.6-3.6c1.7-1,3.5-1.8,5.5-2.3c1.9-0.6,4-0.8,6.1-0.8s4.1,0.3,6.1,0.8s3.8,1.3,5.5,2.3
			s3.3,2.2,4.7,3.6s2.6,2.9,3.6,4.6s1.8,3.5,2.3,5.5c0.6,2,0.8,4,0.8,6.1C715.1,437,714.8,439,714.2,441z M714.6,385.2
			c-0.3,0-0.6,0-0.9-0.1c-0.3-0.1-0.6-0.2-0.7-0.3c-1.2-2-2.5-4.1-3.7-6.1s-2.4-4-3.7-6.1c-1.1-1.9-2.3-3.8-3.5-5.8
			s-2.4-3.9-3.5-5.9l-3.2-5.3c-1.3,1.2-2.6,2.5-3.9,3.7c-1.3,1.2-2.5,2.5-3.9,3.7l-3.3,3v17.9c0,0.8-0.4,1.1-1.2,1.1H682
			c-0.8,0-1.1-0.4-1.1-1.1l-0.1-42.3c0-0.3,0.1-0.6,0.3-0.8c0.2-0.2,0.5-0.3,0.9-0.3h1.1c0.3,0,0.6,0.1,0.8,0.3
			c0.2,0.2,0.3,0.5,0.3,0.8v19.6l20.7-19.8c0.3-0.3,0.5-0.5,0.7-0.6s0.5-0.2,0.7-0.3c0.3-0.1,0.5-0.1,0.9-0.1c0.3,0,0.7,0,1.1,0
			c0.4,0,0.8,0.1,1.1,0.2s0.5,0.3,0.5,0.7c0,0.2-0.1,0.3-0.3,0.5l-11.9,11.3l18.2,30.3c0.1,0.2,0.2,0.5,0.2,0.7
			C716.2,384.9,715.7,385.2,714.6,385.2z"/>
	</g>
</g>
</svg>
