<?xml version="1.0" encoding="utf-8"?>
<!-- Generator: Adobe Illustrator 21.1.0, SVG Export Plug-In . SVG Version: 6.00 Build 0)  -->
<svg version="1.1" id="Calque_1" xmlns="http://www.w3.org/2000/svg" xmlns:xlink="http://www.w3.org/1999/xlink" x="0px" y="0px"
	 viewBox="0 0 1080 200" style="enable-background:new 0 0 1080 200;" xml:space="preserve">
<style type="text/css">
	.st0{fill:url(#SVGID_1_);}
	.st1{fill:url(#SVGID_2_);}
	.st2{fill:url(#SVGID_3_);}
	.st3{fill:url(#SVGID_4_);}
	.st4{fill:url(#SVGID_5_);}
	.st5{fill:url(#SVGID_6_);}
	.st6{fill:url(#SVGID_7_);}
	.st7{fill:url(#SVGID_8_);}
	.st8{fill:url(#SVGID_9_);}
	.st9{fill:url(#SVGID_10_);}
	.st10{fill:url(#SVGID_11_);}
	.st11{fill:url(#SVGID_12_);}
	.st12{fill:url(#SVGID_13_);}
	.st13{fill:url(#SVGID_14_);}
	.st14{fill:url(#SVGID_15_);}
	.st15{fill:url(#SVGID_16_);}
	.st16{fill:none;stroke:url(#SVGID_17_);stroke-width:2.0258;stroke-linecap:square;stroke-linejoin:round;}
	.st17{fill:none;stroke:url(#SVGID_18_);stroke-width:2.0258;stroke-linecap:square;stroke-linejoin:round;}
	.st18{fill:none;stroke:url(#SVGID_19_);stroke-width:2.0258;stroke-linecap:square;stroke-linejoin:round;}
	.st19{fill:none;stroke:url(#SVGID_20_);stroke-width:2.0258;stroke-linecap:square;stroke-linejoin:round;}
</style>
<g>
	<g>
		<g>
			
				<linearGradient id="SVGID_1_" gradientUnits="userSpaceOnUse" x1="482.0317" y1="150.95" x2="968.7715" y2="150.95" gradientTransform="matrix(1 0 0 -1 0 204)">
				<stop  offset="0" style="stop-color:#1A76D8"/>
				<stop  offset="1" style="stop-color:#9D44D6"/>
			</linearGradient>
			<path class="st0" d="M493.4,28.7v22.7h26.2v4.1h-26.2v25.9h-4.3V24.7h31.4v4.1h-27.1V28.7z"/>
			
				<linearGradient id="SVGID_2_" gradientUnits="userSpaceOnUse" x1="482.0317" y1="150.95" x2="968.7715" y2="150.95" gradientTransform="matrix(1 0 0 -1 0 204)">
				<stop  offset="0" style="stop-color:#1A76D8"/>
				<stop  offset="1" style="stop-color:#9D44D6"/>
			</linearGradient>
			<path class="st1" d="M562.7,58.1h-17.9v23.3h-4.3V24.7h22.4c9.2,0,16.8,7.5,16.8,16.8c0,7.7-5.3,14.2-12.5,16.1l14.1,23.8h-4.9
				L562.7,58.1z M544.8,54.1h18.1c6.9,0,12.5-5.7,12.5-12.6c0-7.1-5.6-12.7-12.5-12.7h-18.1V54.1z"/>
			
				<linearGradient id="SVGID_3_" gradientUnits="userSpaceOnUse" x1="482.0317" y1="150.95" x2="968.7715" y2="150.95" gradientTransform="matrix(1 0 0 -1 0 204)">
				<stop  offset="0" style="stop-color:#1A76D8"/>
				<stop  offset="1" style="stop-color:#9D44D6"/>
			</linearGradient>
			<path class="st2" d="M632.2,77.3v4.1h-32.7V24.7h32.3v4.1h-28v22h25.9v4.1h-25.9v22.5L632.2,77.3L632.2,77.3z"/>
			
				<linearGradient id="SVGID_4_" gradientUnits="userSpaceOnUse" x1="482.0317" y1="150.95" x2="968.7715" y2="150.95" gradientTransform="matrix(1 0 0 -1 0 204)">
				<stop  offset="0" style="stop-color:#1A76D8"/>
				<stop  offset="1" style="stop-color:#9D44D6"/>
			</linearGradient>
			<path class="st3" d="M700.2,53c0,15.6-11.1,28.4-26.7,28.4h-21.3V24.7h21.3C689.1,24.7,700.2,37.4,700.2,53z M696,53
				c0-13.5-9.2-24.3-22.5-24.3h-17v48.6h17C686.9,77.3,696,66.5,696,53z"/>
			
				<linearGradient id="SVGID_5_" gradientUnits="userSpaceOnUse" x1="482.0317" y1="150.95" x2="968.7715" y2="150.95" gradientTransform="matrix(1 0 0 -1 0 204)">
				<stop  offset="0" style="stop-color:#1A76D8"/>
				<stop  offset="1" style="stop-color:#9D44D6"/>
			</linearGradient>
			<path class="st4" d="M753.2,77.3v4.1h-32.7V24.7h32.3v4.1h-28v22h25.9v4.1h-25.9v22.5L753.2,77.3L753.2,77.3z"/>
			
				<linearGradient id="SVGID_6_" gradientUnits="userSpaceOnUse" x1="482.0317" y1="150.95" x2="968.7715" y2="150.95" gradientTransform="matrix(1 0 0 -1 0 204)">
				<stop  offset="0" style="stop-color:#1A76D8"/>
				<stop  offset="1" style="stop-color:#9D44D6"/>
			</linearGradient>
			<path class="st5" d="M795.3,58.1h-17.9v23.3h-4.3V24.7h22.4c9.2,0,16.8,7.5,16.8,16.8c0,7.7-5.3,14.2-12.5,16.1l14.1,23.8H809
				L795.3,58.1z M777.4,54.1h18.1c6.9,0,12.5-5.7,12.5-12.6c0-7.1-5.6-12.7-12.5-12.7h-18.1V54.1z"/>
			
				<linearGradient id="SVGID_7_" gradientUnits="userSpaceOnUse" x1="482.0317" y1="150.95" x2="968.7715" y2="150.95" gradientTransform="matrix(1 0 0 -1 0 204)">
				<stop  offset="0" style="stop-color:#1A76D8"/>
				<stop  offset="1" style="stop-color:#9D44D6"/>
			</linearGradient>
			<path class="st6" d="M836.5,24.7v56.7h-4.3V24.7H836.5z"/>
			
				<linearGradient id="SVGID_8_" gradientUnits="userSpaceOnUse" x1="482.0317" y1="151.0497" x2="968.7715" y2="151.0497" gradientTransform="matrix(1 0 0 -1 0 204)">
				<stop  offset="0" style="stop-color:#1A76D8"/>
				<stop  offset="1" style="stop-color:#9D44D6"/>
			</linearGradient>
			<path class="st7" d="M856.8,53c0-16.2,12.2-29.3,29.5-29.3c10.5,0,19.6,5.3,24.3,13.6l-3.8,2.2c-3.7-7-11.6-11.7-20.5-11.7
				c-14.9,0-25.2,11.2-25.2,25.1S871.4,78,886.3,78c9,0,16.9-4.8,20.7-11.9l3.8,2.2c-4.6,8.3-13.9,13.9-24.5,13.9
				C869,82.3,856.8,69.2,856.8,53z"/>
			
				<linearGradient id="SVGID_9_" gradientUnits="userSpaceOnUse" x1="482.0317" y1="150.9" x2="968.7715" y2="150.9" gradientTransform="matrix(1 0 0 -1 0 204)">
				<stop  offset="0" style="stop-color:#1A76D8"/>
				<stop  offset="1" style="stop-color:#9D44D6"/>
			</linearGradient>
			<path class="st8" d="M963,81.4l-28.4-28v28h-4.3V24.7h4.3v26.4l27.6-26.4h5.8l-28.7,27.6l29.5,29.2L963,81.4L963,81.4z"/>
			
				<linearGradient id="SVGID_10_" gradientUnits="userSpaceOnUse" x1="482" y1="53.75" x2="968.7397" y2="53.75" gradientTransform="matrix(1 0 0 -1 0 204)">
				<stop  offset="0" style="stop-color:#1A76D8"/>
				<stop  offset="1" style="stop-color:#9D44D6"/>
			</linearGradient>
			<path class="st9" d="M520.1,169.7H499l-2.8,8.9H482l19.3-56.7h16.5l19.3,56.7H523L520.1,169.7z M516.2,157.5l-6.6-20.8l-6.6,20.8
				H516.2z"/>
			
				<linearGradient id="SVGID_11_" gradientUnits="userSpaceOnUse" x1="482.0317" y1="53.75" x2="968.7715" y2="53.75" gradientTransform="matrix(1 0 0 -1 0 204)">
				<stop  offset="0" style="stop-color:#1A76D8"/>
				<stop  offset="1" style="stop-color:#9D44D6"/>
			</linearGradient>
			<path class="st10" d="M575.4,160h-6.2v18.6h-13v-56.7h22.7c10.8,0,19.4,8.7,19.4,19.4c0,7-4.2,13.3-10.5,16.5l12.1,20.8H586
				L575.4,160z M569.2,148.6h9.7c3.6,0,6.5-3.2,6.5-7.3s-2.9-7.3-6.5-7.3h-9.7V148.6z"/>
			
				<linearGradient id="SVGID_12_" gradientUnits="userSpaceOnUse" x1="482.0317" y1="53.75" x2="968.7715" y2="53.75" gradientTransform="matrix(1 0 0 -1 0 204)">
				<stop  offset="0" style="stop-color:#1A76D8"/>
				<stop  offset="1" style="stop-color:#9D44D6"/>
			</linearGradient>
			<path class="st11" d="M677,178.6h-13v-33l-14.7,24.1h-1.5l-14.7-24.1v33h-13v-56.7h13l15.4,25.2l15.4-25.2h13L677,178.6
				L677,178.6z"/>
			
				<linearGradient id="SVGID_13_" gradientUnits="userSpaceOnUse" x1="482.0317" y1="53.75" x2="968.7715" y2="53.75" gradientTransform="matrix(1 0 0 -1 0 204)">
				<stop  offset="0" style="stop-color:#1A76D8"/>
				<stop  offset="1" style="stop-color:#9D44D6"/>
			</linearGradient>
			<path class="st12" d="M734.2,169.7h-21.1l-2.8,8.9h-14.2l19.3-56.7h16.5l19.3,56.7H737L734.2,169.7z M730.3,157.5l-6.6-20.8
				l-6.6,20.8H730.3z"/>
			
				<linearGradient id="SVGID_14_" gradientUnits="userSpaceOnUse" x1="482.0317" y1="53.75" x2="968.7715" y2="53.75" gradientTransform="matrix(1 0 0 -1 0 204)">
				<stop  offset="0" style="stop-color:#1A76D8"/>
				<stop  offset="1" style="stop-color:#9D44D6"/>
			</linearGradient>
			<path class="st13" d="M814.9,121.9v56.7h-9.7l-21.9-30.8v30.8h-13v-56.7h9.7l21.9,30.8v-30.8H814.9z"/>
			
				<linearGradient id="SVGID_15_" gradientUnits="userSpaceOnUse" x1="482.0317" y1="53.6503" x2="968.7715" y2="53.6503" gradientTransform="matrix(1 0 0 -1 0 204)">
				<stop  offset="0" style="stop-color:#1A76D8"/>
				<stop  offset="1" style="stop-color:#9D44D6"/>
			</linearGradient>
			<path class="st14" d="M889.1,150.3c0,16-11.9,28.4-27.6,28.4h-22.7V122h22.7C877.2,121.9,889.1,134.2,889.1,150.3z M876.6,150.3
				c0-9.7-6.2-15.9-15.1-15.9h-9.7v31.8h9.7C870.4,166.1,876.6,160,876.6,150.3z"/>
			
				<linearGradient id="SVGID_16_" gradientUnits="userSpaceOnUse" x1="482.0317" y1="53.7" x2="968.7715" y2="53.7" gradientTransform="matrix(1 0 0 -1 0 204)">
				<stop  offset="0" style="stop-color:#1A76D8"/>
				<stop  offset="1" style="stop-color:#9D44D6"/>
			</linearGradient>
			<path class="st15" d="M908.2,150.3c0-16.7,13.2-29.5,29.5-29.5s29.5,12.8,29.5,29.5s-13.2,29.5-29.5,29.5
				S908.2,166.9,908.2,150.3z M954.2,150.3c0-10.1-7.3-16.9-16.5-16.9s-16.5,6.7-16.5,16.9c0,10.1,7.3,16.9,16.5,16.9
				S954.2,160.4,954.2,150.3z"/>
		</g>
	</g>
	<g>
		<g>
			<g>
				
					<linearGradient id="SVGID_17_" gradientUnits="userSpaceOnUse" x1="220.8447" y1="130.2086" x2="558.6204" y2="130.2086" gradientTransform="matrix(1 0 0 -1 -110.4224 232.3086)">
					<stop  offset="0" style="stop-color:#9D44D6"/>
					<stop  offset="0.2861" style="stop-color:#7454D7"/>
					<stop  offset="0.771" style="stop-color:#336CD8"/>
					<stop  offset="1" style="stop-color:#1A76D8"/>
				</linearGradient>
				<polygon class="st16" points="346.7,103.1 320.7,58.1 422.4,58.1 448.2,13.4 243.3,13.4 345.8,190.8 396.4,103.1 				"/>
				
					<linearGradient id="SVGID_18_" gradientUnits="userSpaceOnUse" x1="220.8447" y1="130.2086" x2="558.6204" y2="130.2086" gradientTransform="matrix(1 0 0 -1 -110.4224 232.3086)">
					<stop  offset="0" style="stop-color:#9D44D6"/>
					<stop  offset="0.2861" style="stop-color:#7454D7"/>
					<stop  offset="0.771" style="stop-color:#336CD8"/>
					<stop  offset="1" style="stop-color:#1A76D8"/>
				</linearGradient>
				<path class="st17" d="M446.5,14.4L421.9,57H320.7H319l0.9,1.5l26,45.1l0.3,0.5h0.6h48l-48.9,84.7L245.1,14.4H446.5 M448.2,13.4
					H243.3l102.4,177.4l50.6-87.7h-49.7l-26-45.1h101.7L448.2,13.4L448.2,13.4z"/>
			</g>
			<g>
				
					<linearGradient id="SVGID_19_" gradientUnits="userSpaceOnUse" x1="220.8447" y1="130.4086" x2="558.6204" y2="130.4086" gradientTransform="matrix(1 0 0 -1 -110.4224 232.3086)">
					<stop  offset="0" style="stop-color:#9D44D6"/>
					<stop  offset="0.2861" style="stop-color:#7454D7"/>
					<stop  offset="0.771" style="stop-color:#336CD8"/>
					<stop  offset="1" style="stop-color:#1A76D8"/>
				</linearGradient>
				<polygon class="st18" points="110.4,190.6 161.6,190.6 163,190.6 188.5,146.4 238.9,146.4 264.4,190.6 315.3,190.6 212.9,13.2 
									"/>
				
					<linearGradient id="SVGID_20_" gradientUnits="userSpaceOnUse" x1="220.8447" y1="130.4086" x2="558.6204" y2="130.4086" gradientTransform="matrix(1 0 0 -1 -110.4224 232.3086)">
					<stop  offset="0" style="stop-color:#9D44D6"/>
					<stop  offset="0.2861" style="stop-color:#7454D7"/>
					<stop  offset="0.771" style="stop-color:#336CD8"/>
					<stop  offset="1" style="stop-color:#1A76D8"/>
				</linearGradient>
				<path class="st19" d="M212.9,15.2l100.7,174.4H265l-25.2-43.7l-0.3-0.5h-0.6h-50.4H188l-0.3,0.5l-25.2,43.7h-0.8h-49.5
					L212.9,15.2 M212.9,13.2L110.4,190.6h51.2h1.4l25.5-44.2h50.4l25.5,44.2h50.8L212.9,13.2L212.9,13.2z"/>
			</g>
		</g>
	</g>
</g>
</svg>
