<?xml version="1.0" encoding="utf-8"?>
<!-- Generator: Adobe Illustrator 21.1.0, SVG Export Plug-In . SVG Version: 6.00 Build 0)  -->
<svg version="1.1" id="Calque_1" xmlns="http://www.w3.org/2000/svg" xmlns:xlink="http://www.w3.org/1999/xlink" x="0px" y="0px"
	 viewBox="0 0 652 150" style="enable-background:new 0 0 652 150;" xml:space="preserve">
<style type="text/css">
	.st0{fill:none;}
	.st1{fill:url(#SVGID_1_);}
	.st2{fill:#FFFFFF;}
	.st3{fill:url(#SVGID_2_);}
	.st4{fill:url(#SVGID_3_);}
	.st5{display:none;}
	.st6{display:inline;fill:none;}
	.st7{display:inline;}
</style>
<g id="Full_Cheat">
	<g>
		<rect x="-44.5" y="-80.5" class="st0" width="754" height="317"/>
		<path class="st0" d="M709-80v316H-44V-80H709 M710-81H-45v318h755V-81L710-81z"/>
	</g>
	<g>
		<g>
			<g>
				
					<linearGradient id="SVGID_1_" gradientUnits="userSpaceOnUse" x1="330.8481" y1="174.242" x2="602.731" y2="-22.7813" gradientTransform="matrix(-0.9805 0 0 1 924.163 -0.9873)">
					<stop  offset="0" style="stop-color:#9D44D6"/>
					<stop  offset="0.2861" style="stop-color:#7454D7"/>
					<stop  offset="0.771" style="stop-color:#336CD8"/>
					<stop  offset="1" style="stop-color:#1A76D8"/>
				</linearGradient>
				<rect x="283" y="13" class="st1" width="369" height="125"/>
			</g>
		</g>
	</g>
	<g>
		<polygon class="st2" points="184.8,76.6 165.5,43.2 240.9,43.2 259.9,10.2 108.3,10.2 184.1,141.5 221.6,76.6 		"/>
		
			<linearGradient id="SVGID_2_" gradientUnits="userSpaceOnUse" x1="184.1" y1="10.4" x2="184.1" y2="141.8" gradientTransform="matrix(1 0 0 -1 0 152)">
			<stop  offset="0" style="stop-color:#9D44D6"/>
			<stop  offset="0.2861" style="stop-color:#7454D7"/>
			<stop  offset="0.771" style="stop-color:#336CD8"/>
			<stop  offset="1" style="stop-color:#1A76D8"/>
		</linearGradient>
		<path class="st3" d="M256.9,11.9l-17.1,29.6h-74.3h-3l1.5,2.6l19.3,33.4l0.5,0.9h1h33.8L184.1,138L111.3,11.9H256.9 M259.9,10.2
			H108.3l75.8,131.4l37.5-64.9h-36.8l-19.3-33.4h75.3L259.9,10.2L259.9,10.2z"/>
	</g>
	<g>
		<polygon class="st2" points="9.8,141.3 47.8,141.3 48.8,141.3 67.7,108.6 105,108.6 123.9,141.3 161.5,141.3 85.7,10 		"/>
		
			<linearGradient id="SVGID_3_" gradientUnits="userSpaceOnUse" x1="85.6" y1="10.7" x2="85.6" y2="142" gradientTransform="matrix(1 0 0 -1 0 152)">
			<stop  offset="0" style="stop-color:#9D44D6"/>
			<stop  offset="0.2861" style="stop-color:#7454D7"/>
			<stop  offset="0.771" style="stop-color:#336CD8"/>
			<stop  offset="1" style="stop-color:#1A76D8"/>
		</linearGradient>
		<path class="st4" d="M85.7,13.5l72.8,126.1h-33.6l-18.4-31.8l-0.5-0.9h-1H67.7h-1l-0.5,0.9l-18.4,31.8l0,0H12.9L85.7,13.5
			 M85.7,10L9.8,141.3h37.9h1l18.9-32.7h37.3l18.9,32.7h37.6L85.7,10L85.7,10z"/>
	</g>
	<g class="st5">
		<rect x="260" y="17" class="st6" width="386" height="117"/>
		<path class="st7" d="M289.9,18c0-0.7,0.4-1.1,1.1-1.1h28.7c0.4,0,0.6,0.1,0.9,0.3s0.3,0.5,0.3,0.9v1c0,0.3-0.1,0.6-0.3,0.8
			c-0.2,0.2-0.5,0.3-0.9,0.3h-26.5v22.4h21.4c0.3,0,0.6,0.1,0.8,0.3c0.2,0.2,0.3,0.5,0.3,0.9v1.1c0,0.3-0.1,0.6-0.3,0.8
			c-0.2,0.2-0.5,0.3-0.8,0.3h-21.4v14.5c0,0.7-0.4,1-1.1,1H291c-0.7,0-1.1-0.3-1.1-1V18z"/>
		<path class="st7" d="M362.2,33.8c0,1.4-0.2,2.8-0.5,4.1c-0.3,1.4-0.8,2.7-1.5,3.9c-0.7,1.2-1.5,2.4-2.4,3.4c-1,1.1-2.1,2-3.3,2.7
			l5.8,12.2c0,0,0,0.1,0.1,0.2c0,0.1,0,0.2,0,0.3c0,0.2-0.1,0.4-0.2,0.6s-0.4,0.3-0.6,0.3h-1.8c-0.4,0-0.7-0.2-0.9-0.6l-5.4-11.4
			c-1.9,0.7-4,1.1-6.4,1.1h-12.2v9.8c0,0.8-0.4,1.1-1.2,1.1h-1.1c-0.8,0-1.1-0.4-1.1-1.1V18.2c0-0.3,0.1-0.6,0.3-0.9
			c0.2-0.2,0.5-0.4,0.7-0.4h14.6c2.6,0,5,0.5,7.1,1.4s3.9,2.2,5.4,3.8c1.5,1.6,2.6,3.4,3.4,5.4C361.8,29.5,362.2,31.6,362.2,33.8z
			 M345.1,47.1c2.2,0,4.1-0.4,5.8-1.1c1.7-0.8,3.1-1.7,4.3-3c1.2-1.2,2.1-2.7,2.7-4.3c0.6-1.6,0.9-3.3,0.9-5s-0.3-3.4-0.9-5
			s-1.5-3-2.7-4.3s-2.6-2.3-4.3-3c-1.7-0.8-3.6-1.1-5.8-1.1h-12.2v26.8H345.1z"/>
		<path class="st7" d="M403.9,17c0.8,0,1.1,0.4,1.1,1.1v1c0,0.3-0.1,0.6-0.3,0.8c-0.2,0.2-0.5,0.3-0.9,0.3h-26.7v22.4h21.6
			c0.3,0,0.6,0.1,0.8,0.3c0.2,0.2,0.3,0.5,0.3,0.9v1.1c0,0.3-0.1,0.6-0.3,0.8c-0.2,0.2-0.5,0.3-0.8,0.3h-21.6v12.3h27.2
			c0.8,0,1.1,0.4,1.1,1.1v1.1c0,0.7-0.4,1.1-1.1,1.1h-29.6c-0.3,0-0.6-0.1-0.7-0.3c-0.2-0.2-0.2-0.4-0.2-0.8V18
			c0-0.5,0.1-0.8,0.3-0.9c0.2-0.1,0.5-0.2,0.8-0.2h29L403.9,17L403.9,17z"/>
		<path class="st7" d="M415.2,18.1c0-0.3,0.1-0.6,0.3-0.8c0.2-0.2,0.4-0.3,0.7-0.3h14.5c2.1,0,4,0.3,5.9,0.8s3.7,1.3,5.3,2.3
			c1.6,1,3.1,2.1,4.5,3.5c1.3,1.3,2.5,2.8,3.5,4.5c0.9,1.6,1.7,3.4,2.2,5.3s0.8,3.9,0.8,5.9c0,2.1-0.3,4-0.8,5.9s-1.3,3.7-2.3,5.3
			c-1,1.6-2.1,3.1-3.5,4.5c-1.4,1.3-2.9,2.5-4.5,3.4c-1.7,1-3.4,1.7-5.4,2.2c-1.9,0.5-3.9,0.8-6,0.8h-14.1c-0.3,0-0.5-0.1-0.8-0.2
			s-0.4-0.4-0.4-0.7L415.2,18.1L415.2,18.1z M430.4,58.3c1.8,0,3.5-0.2,5.2-0.7s3.2-1.1,4.6-1.9c1.4-0.8,2.7-1.8,3.9-3
			s2.2-2.5,3-3.9s1.5-2.9,1.9-4.6c0.5-1.6,0.7-3.3,0.7-5.1c0-2.7-0.5-5.2-1.5-7.5s-2.4-4.3-4.2-6s-3.8-3-6.1-3.9s-4.8-1.4-7.4-1.4
			h-11.9v38.1h11.8L430.4,58.3L430.4,58.3z"/>
		<path class="st7" d="M493.6,17c0.8,0,1.1,0.4,1.1,1.1v1c0,0.3-0.1,0.6-0.3,0.8c-0.2,0.2-0.5,0.3-0.9,0.3h-26.7v22.4h21.6
			c0.3,0,0.6,0.1,0.8,0.3c0.2,0.2,0.3,0.5,0.3,0.9v1.1c0,0.3-0.1,0.6-0.3,0.8c-0.2,0.2-0.5,0.3-0.8,0.3h-21.6v12.3H494
			c0.8,0,1.1,0.4,1.1,1.1v1.1c0,0.7-0.4,1.1-1.1,1.1h-29.6c-0.3,0-0.6-0.1-0.7-0.3c-0.2-0.2-0.2-0.4-0.2-0.8V18
			c0-0.5,0.1-0.8,0.3-0.9s0.5-0.2,0.8-0.2h29V17z"/>
		<path class="st7" d="M537.6,33.8c0,1.4-0.2,2.8-0.5,4.1c-0.3,1.4-0.8,2.7-1.5,3.9c-0.7,1.2-1.5,2.4-2.4,3.4c-1,1.1-2.1,2-3.3,2.7
			l5.8,12.2c0,0,0,0.1,0.1,0.2c0,0.1,0,0.2,0,0.3c0,0.2-0.1,0.4-0.2,0.6c-0.1,0.2-0.4,0.3-0.6,0.3h-1.8c-0.4,0-0.7-0.2-0.9-0.6
			l-5.4-11.4c-1.9,0.7-4,1.1-6.4,1.1h-12.2v9.8c0,0.8-0.4,1.1-1.2,1.1H506c-0.8,0-1.1-0.4-1.1-1.1V18.2c0-0.3,0.1-0.6,0.3-0.9
			s0.5-0.4,0.7-0.4h14.6c2.6,0,5,0.5,7.1,1.4s3.9,2.2,5.4,3.8c1.5,1.6,2.6,3.4,3.4,5.4C537.2,29.5,537.6,31.6,537.6,33.8z
			 M520.5,47.1c2.2,0,4.1-0.4,5.8-1.1c1.7-0.8,3.1-1.7,4.3-3c1.2-1.2,2.1-2.7,2.7-4.3c0.6-1.6,0.9-3.3,0.9-5s-0.3-3.4-0.9-5
			c-0.6-1.6-1.5-3-2.7-4.3s-2.6-2.3-4.3-3c-1.7-0.8-3.6-1.1-5.8-1.1h-12.2v26.8H520.5z"/>
		<path class="st7" d="M549.2,18c0-0.3,0.1-0.6,0.3-0.8c0.2-0.2,0.5-0.3,0.8-0.3h1.1c0.3,0,0.6,0.1,0.8,0.3c0.2,0.2,0.3,0.5,0.3,0.8
			v42.4c0,0.7-0.4,1.1-1.1,1.1h-1.1c-0.7,0-1.1-0.4-1.1-1.1V18z"/>
		<path class="st7" d="M599.2,21.3c0.3,0.2,0.5,0.5,0.5,0.8c0,0.2-0.1,0.4-0.3,0.7c0,0-0.1,0.1-0.2,0.3c-0.1,0.1-0.2,0.3-0.4,0.5
			s-0.3,0.3-0.5,0.5c-0.2,0.1-0.3,0.2-0.5,0.2l0,0h-0.1c-0.1,0-0.1,0-0.2,0c-0.1,0-0.2-0.1-0.4-0.2c-1.7-1.3-3.6-2.4-5.5-3.1
			c-2-0.8-4.1-1.1-6.3-1.1c-1.8,0-3.6,0.2-5.3,0.7s-3.3,1.1-4.7,2c-1.5,0.9-2.8,1.9-4,3.1s-2.2,2.5-3.1,4c-0.9,1.5-1.5,3-2,4.6
			c-0.5,1.7-0.7,3.4-0.7,5.1c0,1.8,0.2,3.5,0.7,5.2s1.1,3.2,2,4.6s1.9,2.8,3.1,3.9c1.2,1.2,2.5,2.2,3.9,3s3,1.5,4.6,1.9
			c1.6,0.5,3.3,0.7,5.1,0.7c4.1,0,8.1-1.4,11.8-4.1l0.8-0.4c0.2-0.1,0.4-0.1,0.5-0.1s0.3,0.1,0.5,0.2c0.2,0.2,0.4,0.4,0.6,0.6
			c0.2,0.2,0.3,0.5,0.4,0.7c0.1,0.3,0.2,0.5,0.2,0.7s-0.1,0.3-0.2,0.5c-0.1,0.1-0.2,0.3-0.4,0.4c-2,1.5-4.1,2.7-6.5,3.6
			c-2.4,0.8-4.9,1.3-7.6,1.3c-3.2,0-6.1-0.6-8.9-1.8c-2.8-1.2-5.2-2.8-7.2-4.9c-2.1-2.1-3.7-4.5-4.9-7.3s-1.8-5.7-1.8-8.9
			c0-2.1,0.3-4.1,0.8-6.1c0.5-1.9,1.3-3.8,2.3-5.4s2.2-3.2,3.6-4.6c1.4-1.4,2.9-2.6,4.6-3.6c1.7-1,3.5-1.8,5.5-2.3
			c1.9-0.5,4-0.8,6.1-0.8c2.7,0,5.2,0.4,7.6,1.3C595,18.6,597.2,19.8,599.2,21.3z"/>
		<path class="st7" d="M633.7,49.1c-1.1-1.9-2.3-3.8-3.5-5.8s-2.4-3.9-3.5-5.9l-3.2-5.3c-1.3,1.2-2.6,2.5-3.9,3.7s-2.5,2.5-3.9,3.7
			l-3.3,3v17.9c0,0.8-0.4,1.1-1.2,1.1h-1.1c-0.8,0-1.1-0.4-1.1-1.1V18.1c0-0.3,0.1-0.6,0.3-0.8c0.2-0.2,0.5-0.3,0.9-0.3h1.1
			c0.3,0,0.6,0.1,0.8,0.3c0.2,0.2,0.3,0.5,0.3,0.8v19.6l20.7-19.8c0.3-0.3,0.5-0.5,0.8-0.6c0.2-0.1,0.5-0.2,0.8-0.3
			c0.3-0.1,0.5-0.1,0.9-0.1c0.3,0,0.7,0,1.1,0s0.8,0.1,1.1,0.2s0.5,0.3,0.5,0.7c0,0.2-0.1,0.3-0.3,0.5l-12,11.3l18.1,30.3
			c0.1,0.2,0.2,0.5,0.2,0.8c0,0.6-0.5,0.9-1.6,0.9c-0.3,0-0.6,0-0.9-0.1c-0.3-0.1-0.6-0.2-0.7-0.3c-1.2-2-2.5-4.1-3.7-6.1
			C636.1,53.2,634.9,51.1,633.7,49.1z"/>
		<path class="st7" d="M305.5,87.6c0.1-0.2,0.2-0.3,0.4-0.5c0.2-0.2,0.4-0.2,0.8-0.2c0.3,0,0.5,0.1,0.8,0.3c0.2,0.2,0.4,0.4,0.5,0.6
			s0.2,0.4,0.3,0.6c0.1,0.2,0.2,0.3,0.2,0.4L309,90c3,7,6,14,9,21s6,14,9,21c0,0.1,0,0.2,0.1,0.3c0,0.1,0,0.2,0,0.3
			c0,0.6-0.4,0.9-1.2,0.9H320c-0.8,0-1.4-0.4-1.6-1.1l-1.7-4.4h-19.9l-1.7,4.3c-0.3,0.8-0.9,1.2-1.7,1.2h-5.9
			c-0.4,0-0.8-0.1-0.9-0.2c-0.2-0.2-0.3-0.4-0.3-0.7c0-0.1,0-0.2,0-0.4c0-0.1,0.1-0.2,0.1-0.3c3-7,6-14,9-21c3-6.9,6-13.9,9-21
			c0.2-0.4,0.3-0.8,0.5-1.2C305.1,88.4,305.3,88,305.5,87.6z M306.7,102.1c-0.1,0.4-0.3,0.8-0.4,1.1c-0.1,0.4-0.3,0.8-0.4,1.2
			l-6.6,16.7h14.8l-6.6-16.7c-0.1-0.4-0.3-0.8-0.4-1.2S306.9,102.5,306.7,102.1z"/>
		<path class="st7" d="M356.1,89c1.6,0,3.2,0.2,4.7,0.6s2.9,1,4.2,1.8c1.3,0.8,2.5,1.7,3.6,2.7s2,2.3,2.8,3.6
			c0.8,1.3,1.4,2.7,1.8,4.2s0.6,3.1,0.6,4.7c0,1.4-0.2,2.8-0.5,4.1c-0.3,1.3-0.8,2.5-1.4,3.7s-1.3,2.3-2.1,3.3
			c-0.8,1-1.7,1.9-2.8,2.7l5.5,10.9c0.1,0.2,0.2,0.4,0.3,0.6c0.1,0.2,0.2,0.4,0.2,0.6c0,0.3-0.1,0.5-0.3,0.7s-0.5,0.3-0.8,0.3h-6.4
			c-0.7,0-1.2-0.4-1.5-1.1l-4.2-8.5c-0.6,0.2-1.2,0.3-1.8,0.4c-0.6,0.1-1.3,0.2-1.9,0.2h-9v7.8c0,0.9-0.5,1.3-1.4,1.3h-5.5
			c-0.9,0-1.3-0.4-1.3-1.3V90.5c0-0.9,0.4-1.4,1.3-1.4h15.9L356.1,89L356.1,89z M365.9,106.6c0-1.3-0.2-2.5-0.7-3.7
			s-1.1-2.2-1.9-3.2c-0.8-0.9-1.8-1.7-2.9-2.3c-1.1-0.6-2.3-1-3.6-1.2c-0.5-0.1-1.1-0.1-1.6-0.2c-0.6,0-1.1-0.1-1.7-0.1h-6.4v21.2
			h8.6c1.4,0,2.8-0.3,4-0.8s2.3-1.3,3.2-2.2s1.6-2.1,2.1-3.4S365.9,108.1,365.9,106.6z"/>
		<path class="st7" d="M408.9,135.1c-0.2,0-0.5-0.1-0.8-0.4s-0.6-0.7-0.9-1.2l-12.6-24.4l-2.4,23c0,0.5-0.2,0.8-0.4,1
			c-0.2,0.2-0.6,0.3-1,0.3h-5.2c-0.9,0-1.4-0.4-1.4-1.2v-0.1l4.3-43.3c0-0.1,0-0.2,0-0.3c0-0.1,0.1-0.3,0.1-0.4
			c0.1-0.1,0.2-0.2,0.3-0.3c0.1-0.1,0.3-0.1,0.5-0.1c0.4,0,0.7,0.2,1,0.7c3.1,5.3,6.1,10.6,9.2,15.9c3,5.3,6.1,10.6,9.2,15.9
			c0,0.1,0,0.1,0.1,0.2c0.1-0.1,0.1-0.1,0.1-0.2l1-2c2.9-5,5.8-10,8.7-14.9c2.9-4.9,5.8-9.9,8.7-14.9c0.3-0.5,0.6-0.7,1-0.7
			c0.2,0,0.4,0,0.5,0.1s0.2,0.2,0.3,0.3c0.1,0.1,0.1,0.3,0.1,0.4s0,0.3,0,0.3c0.7,6.9,1.4,13.8,2,20.6s1.4,13.6,2.1,20.5l0.2,2.3
			v0.1c0,0.4-0.1,0.7-0.4,0.9c-0.3,0.2-0.6,0.3-1,0.3H427c-0.9,0-1.3-0.5-1.4-1.4l-2.4-23l-12.7,24.5c0,0.1-0.1,0.2-0.2,0.3
			s-0.2,0.3-0.4,0.5c-0.1,0.2-0.3,0.3-0.5,0.5S409.1,135.1,408.9,135.1z"/>
		<path class="st7" d="M461.7,87.6c0.1-0.2,0.2-0.3,0.4-0.5s0.4-0.2,0.8-0.2c0.3,0,0.5,0.1,0.8,0.3c0.2,0.2,0.4,0.4,0.5,0.6
			s0.2,0.4,0.3,0.6s0.2,0.3,0.2,0.4l0.5,1.2c3,7,6,14,9,21s6,14,9,21c0,0.1,0,0.2,0.1,0.3s0,0.2,0,0.3c0,0.6-0.4,0.9-1.2,0.9h-5.9
			c-0.8,0-1.4-0.4-1.7-1.1l-1.7-4.4h-19.9l-1.7,4.3c-0.3,0.8-0.9,1.2-1.7,1.2h-5.9c-0.4,0-0.8-0.1-0.9-0.2c-0.2-0.2-0.3-0.4-0.3-0.7
			c0-0.1,0-0.2,0-0.4c0-0.1,0.1-0.2,0.1-0.3c3-7,6-14,9-21c3-6.9,6-13.9,9-21c0.2-0.4,0.3-0.8,0.5-1.2
			C461.3,88.4,461.5,88,461.7,87.6z M462.9,102.1c-0.1,0.4-0.3,0.8-0.4,1.1s-0.3,0.8-0.4,1.2l-6.6,16.7h14.8l-6.6-16.7
			c-0.1-0.4-0.3-0.8-0.4-1.2C463.2,102.8,463,102.5,462.9,102.1z"/>
		<path class="st7" d="M503.2,106v26.1c0,0.9-0.5,1.4-1.4,1.4h-5.3c-0.9,0-1.4-0.5-1.4-1.4V88.7c0-0.1,0-0.2,0-0.3s0-0.3,0.1-0.4
			s0.2-0.3,0.3-0.4s0.3-0.2,0.6-0.2s0.6,0.1,0.8,0.4l28.4,29.5V90.5c0-1,0.5-1.4,1.4-1.4h5.3c0.9,0,1.4,0.5,1.4,1.4V134
			c0,0.1,0,0.2,0,0.3c0,0.1,0,0.3-0.1,0.4s-0.2,0.3-0.3,0.4s-0.3,0.2-0.6,0.2s-0.6-0.1-0.8-0.4L503.2,106z"/>
		<path class="st7" d="M586.6,111.3c0,2.1-0.3,4.1-0.8,6s-1.3,3.7-2.3,5.3s-2.1,3.1-3.5,4.5c-1.4,1.3-2.9,2.5-4.6,3.4
			c-1.7,1-3.5,1.7-5.4,2.2s-3.9,0.8-6,0.8h-14.4c-0.4,0-0.7-0.1-1-0.3c-0.3-0.2-0.4-0.5-0.4-1V90.4c0-0.5,0.1-0.8,0.3-1.1
			c0.2-0.3,0.6-0.4,1-0.4H564c2.1,0,4.1,0.3,6,0.8s3.7,1.3,5.4,2.2s3.2,2.1,4.6,3.5c1.4,1.4,2.5,2.9,3.5,4.5c1,1.7,1.7,3.4,2.3,5.4
			C586.3,107.2,586.6,109.2,586.6,111.3z M556.4,96.7v29h3c1.6,0,3.2,0,4.8-0.1c2-0.1,3.9-0.5,5.7-1.3c1.7-0.8,3.2-1.8,4.5-3.1
			c1.3-1.3,2.3-2.8,3-4.6s1.1-3.6,1.1-5.6c0-2.1-0.4-4.1-1.2-5.8c-0.8-1.8-1.9-3.3-3.2-4.5s-2.9-2.2-4.7-2.9c-1.8-0.7-3.7-1-5.7-1
			h-7.3L556.4,96.7L556.4,96.7z"/>
		<path class="st7" d="M597.1,111.3c0-2.1,0.3-4.1,0.8-6.1s1.3-3.8,2.3-5.5s2.2-3.3,3.6-4.7c1.4-1.4,2.9-2.6,4.6-3.6
			s3.5-1.8,5.5-2.3s4-0.8,6.1-0.8s4.1,0.3,6.1,0.8c2,0.6,3.8,1.3,5.5,2.3s3.3,2.2,4.7,3.6s2.6,3,3.6,4.7s1.8,3.5,2.3,5.5
			s0.8,4,0.8,6.1s-0.3,4.2-0.8,6.1c-0.6,2-1.3,3.8-2.3,5.5s-2.2,3.2-3.6,4.6c-1.4,1.4-3,2.6-4.7,3.6s-3.5,1.8-5.5,2.3
			s-4,0.8-6.1,0.8s-4.2-0.3-6.1-0.8s-3.8-1.3-5.5-2.3s-3.2-2.2-4.6-3.6c-1.4-1.4-2.6-2.9-3.6-4.6s-1.8-3.5-2.3-5.5
			S597.1,113.4,597.1,111.3z M605.3,111.3c0,2.1,0.4,4,1.1,5.8c0.8,1.8,1.8,3.4,3.1,4.7c1.3,1.4,2.9,2.4,4.7,3.2s3.7,1.2,5.8,1.2
			s4-0.4,5.8-1.2s3.3-1.8,4.7-3.2c1.3-1.3,2.4-2.9,3.1-4.7c0.8-1.8,1.1-3.8,1.1-5.8c0-2.1-0.4-4-1.1-5.8c-0.8-1.8-1.8-3.4-3.1-4.8
			s-2.9-2.4-4.7-3.2s-3.7-1.2-5.8-1.2s-4,0.4-5.8,1.2s-3.3,1.9-4.7,3.2s-2.4,2.9-3.1,4.8C605.7,107.3,605.3,109.2,605.3,111.3z"/>
	</g>
	<g>
		<path class="st2" d="M463.4,103.2c-0.1-0.4-0.3-0.8-0.4-1.2c-0.1,0.4-0.3,0.8-0.4,1.1s-0.3,0.8-0.4,1.2l-6.6,16.7h14.8l-6.6-16.7
			C463.6,104,463.5,103.6,463.4,103.2z"/>
		<path class="st2" d="M307.2,103.6c-0.1-0.4-0.3-0.8-0.4-1.2c-0.1,0.4-0.3,0.8-0.4,1.1c-0.1,0.4-0.3,0.8-0.4,1.2l-6.6,16.7h14.8
			l-6.6-16.7C307.5,104.4,307.3,104,307.2,103.6z"/>
		<path class="st2" d="M574.1,100.5c-1.3-1.3-2.9-2.2-4.7-2.9c-1.8-0.7-3.7-1-5.7-1h-7.3l0.1,29h3c1.6,0,3.2,0,4.8-0.1
			c2-0.1,3.9-0.5,5.7-1.3c1.7-0.8,3.2-1.8,4.5-3.1c1.3-1.3,2.3-2.8,3-4.6s1.1-3.6,1.1-5.6c0-2.1-0.4-4.1-1.2-5.8
			C576.5,103.3,575.4,101.7,574.1,100.5z"/>
		<path class="st2" d="M530.5,24.4c-1.2-1.3-2.6-2.3-4.3-3c-1.7-0.8-3.6-1.1-5.8-1.1h-12.2l0.1,26.8h12.2c2.2,0,4.1-0.4,5.8-1.1
			c1.7-0.8,3.1-1.8,4.3-3c1.2-1.3,2.1-2.7,2.7-4.3c0.6-1.6,0.9-3.3,0.9-5s-0.3-3.4-0.9-5C532.5,27.1,531.6,25.6,530.5,24.4z"/>
		<path class="st2" d="M350.8,46.3c1.7-0.8,3.1-1.8,4.3-3c1.2-1.3,2.1-2.7,2.7-4.3c0.6-1.6,0.9-3.3,0.9-5s-0.3-3.4-0.9-5
			s-1.5-3-2.7-4.3s-2.6-2.3-4.3-3c-1.7-0.8-3.6-1.1-5.8-1.1h-12.2l0.1,26.8h12.2C347.2,47.4,349.1,47,350.8,46.3z"/>
		<path class="st2" d="M363.3,100c-0.8-0.9-1.8-1.7-2.9-2.3c-1.1-0.6-2.3-1-3.6-1.2c-0.5-0.1-1.1-0.1-1.6-0.2
			c-0.6,0-1.1-0.1-1.7-0.1h-6.4v21.2h8.6c1.4,0,2.8-0.3,4-0.8s2.3-1.3,3.2-2.2s1.6-2.1,2.1-3.4s0.8-2.7,0.8-4.2
			c0-1.3-0.2-2.5-0.7-3.7C364.8,102,364.1,101,363.3,100z"/>
		<path class="st2" d="M448.9,44.2c0.4-1.6,0.7-3.3,0.7-5.1c0-2.7-0.5-5.2-1.5-7.5s-2.4-4.3-4.2-6s-3.8-3-6.1-3.9
			c-2.3-0.9-4.8-1.4-7.4-1.4h-11.9l0.1,38.1h11.8c1.8,0,3.5-0.2,5.2-0.7s3.2-1.1,4.6-2c1.4-0.8,2.7-1.9,3.9-3s2.2-2.5,3-3.9
			C447.8,47.4,448.4,45.8,448.9,44.2z"/>
		<path class="st2" d="M630.5,100.3c-1.3-1.3-2.9-2.4-4.7-3.2c-1.8-0.8-3.7-1.2-5.8-1.2s-4,0.4-5.8,1.2c-1.8,0.8-3.3,1.9-4.7,3.2
			c-1.3,1.4-2.3,2.9-3.1,4.8c-0.7,1.8-1.1,3.8-1.1,5.8c0,2.1,0.4,4,1.1,5.8c0.8,1.8,1.8,3.4,3.1,4.7c1.3,1.3,2.9,2.4,4.7,3.2
			c1.8,0.8,3.7,1.2,5.8,1.2s4-0.4,5.8-1.2c1.8-0.8,3.3-1.9,4.7-3.2c1.3-1.4,2.4-2.9,3.1-4.7c0.8-1.8,1.1-3.8,1.1-5.8
			c0-2.1-0.4-4-1.2-5.8C632.9,103.2,631.9,101.7,630.5,100.3z"/>
		<path class="st2" d="M658.8,9.6l-381,0.9l0.3,132l381-0.9L658.8,9.6z M549.4,17.1c0.2-0.2,0.5-0.3,0.8-0.3h1.1
			c0.3,0,0.6,0.1,0.8,0.3c0.2,0.2,0.3,0.5,0.3,0.8l0.1,42.4c0,0.7-0.4,1.1-1.1,1.1h-1.1c-0.7,0-1.1-0.4-1.1-1.1l-0.1-42.4
			C549.1,17.5,549.2,17.3,549.4,17.1z M290.8,17.4l28.7-0.1c0.4,0,0.6,0.1,0.9,0.3c0.2,0.2,0.3,0.5,0.3,0.9v1c0,0.3-0.1,0.6-0.3,0.8
			c-0.2,0.2-0.5,0.3-0.9,0.3L293,20.7l0.1,22.4h21.4c0.3,0,0.6,0.1,0.8,0.3c0.2,0.2,0.3,0.5,0.3,0.9v1.1c0,0.3-0.1,0.6-0.3,0.8
			c-0.2,0.2-0.5,0.3-0.8,0.3h-21.4V61c0,0.7-0.4,1.1-1.1,1.1h-1.1c-0.7,0-1.1-0.3-1.1-1l-0.1-42.4C289.8,17.7,290.1,17.4,290.8,17.4
			z M326.1,133.8h-5.9c-0.8,0-1.4-0.4-1.7-1.1l-1.7-4.4h-19.9l-1.7,4.4c-0.3,0.8-0.9,1.2-1.7,1.2h-5.9c-0.4,0-0.8-0.1-0.9-0.2
			c-0.2-0.2-0.3-0.4-0.3-0.7c0-0.1,0-0.2,0-0.4c0-0.1,0.1-0.2,0.1-0.3c3-7,6-14,8.9-21c3-7,6-13.9,9-21c0.2-0.4,0.3-0.8,0.5-1.2
			c0.2-0.4,0.4-0.8,0.6-1.2c0.1-0.2,0.2-0.3,0.4-0.5c0.2-0.2,0.4-0.2,0.8-0.2c0.3,0,0.5,0.1,0.8,0.3c0.2,0.2,0.4,0.4,0.5,0.6
			s0.2,0.4,0.3,0.6c0.1,0.2,0.2,0.3,0.2,0.4l0.5,1.2c3.1,7,6.1,14,9.1,21s6,14,9,21c0,0.1,0,0.2,0.1,0.3c0,0.1,0,0.2,0,0.3
			C327.3,133.5,326.9,133.8,326.1,133.8z M331.6,61.8h-1.1c-0.8,0-1.1-0.4-1.1-1.1l-0.1-42.2c0-0.3,0.1-0.6,0.3-0.9
			c0.2-0.2,0.5-0.4,0.7-0.4h14.6c2.6,0,5,0.5,7.1,1.4s3.9,2.2,5.4,3.8c1.5,1.6,2.6,3.4,3.4,5.4s1.2,4.1,1.2,6.3
			c0,1.4-0.2,2.8-0.5,4.1c-0.3,1.4-0.8,2.7-1.5,3.9c-0.7,1.2-1.5,2.4-2.4,3.4c-1,1.1-2.1,2-3.3,2.7l5.8,12.2c0,0,0,0.1,0.1,0.2
			c0,0.1,0,0.2,0,0.3c0,0.2-0.1,0.4-0.2,0.6s-0.4,0.3-0.6,0.3h-1.8c-0.4,0-0.7-0.2-0.9-0.6l-5.4-11.4c-1.9,0.7-4,1.1-6.4,1.1h-12.2
			v9.8C332.8,61.5,332.4,61.8,331.6,61.8z M373.5,111c-0.3,1.3-0.8,2.6-1.3,3.7c-0.6,1.2-1.3,2.3-2.1,3.3c-0.8,1-1.7,1.9-2.8,2.7
			l5.5,10.9c0.1,0.2,0.2,0.4,0.3,0.6c0.1,0.2,0.2,0.4,0.2,0.6c0,0.3-0.1,0.5-0.3,0.7c-0.2,0.2-0.5,0.3-0.8,0.3h-6.4
			c-0.7,0-1.2-0.4-1.5-1.1l-4.2-8.5c-0.6,0.2-1.2,0.3-1.8,0.4c-0.6,0.1-1.3,0.2-1.9,0.2h-9v7.8c0,0.9-0.5,1.3-1.4,1.3h-5.5
			c-0.9,0-1.3-0.4-1.3-1.3l-0.1-41.8c0-0.9,0.4-1.4,1.3-1.4h16c1.6,0,3.2,0.2,4.7,0.6s2.9,1,4.2,1.8c1.3,0.8,2.5,1.7,3.6,2.7
			c1.1,1.1,2,2.3,2.8,3.6c0.8,1.3,1.4,2.7,1.8,4.2s0.7,3.1,0.7,4.7C373.9,108.3,373.8,109.7,373.5,111z M374.1,61.5
			c-0.2-0.2-0.2-0.4-0.2-0.8l-0.1-42.4c0-0.5,0.1-0.8,0.3-0.9c0.2-0.1,0.5-0.2,0.8-0.2l28.9-0.1c0.8,0,1.1,0.4,1.1,1.1v1
			c0,0.3-0.1,0.6-0.3,0.8c-0.2,0.2-0.5,0.3-0.9,0.3L377,20.4l0.1,22.4h21.6c0.3,0,0.6,0.1,0.8,0.3c0.2,0.2,0.3,0.5,0.3,0.9v1.1
			c0,0.3-0.1,0.6-0.3,0.8c-0.2,0.2-0.5,0.3-0.8,0.3h-21.6v12.3l27.2-0.1c0.8,0,1.1,0.4,1.1,1.1v1.1c0,0.7-0.4,1.1-1.1,1.1l-29.6,0.1
			C374.5,61.7,374.2,61.6,374.1,61.5z M433.3,133.3c-0.3,0.2-0.6,0.3-1,0.3h-5.2c-0.9,0-1.3-0.5-1.4-1.4l-2.4-23l-12.6,24.5
			c0,0.1-0.1,0.2-0.2,0.3s-0.2,0.3-0.4,0.5c-0.1,0.2-0.3,0.3-0.5,0.5s-0.4,0.2-0.6,0.2s-0.5-0.1-0.8-0.4s-0.6-0.7-0.9-1.2
			l-12.7-24.3l-2.3,23c0,0.5-0.2,0.8-0.4,1c-0.2,0.2-0.6,0.3-1,0.3h-5.2c-0.9,0-1.4-0.4-1.4-1.2v-0.1l4.2-43.3c0-0.1,0-0.2,0-0.3
			c0-0.1,0.1-0.3,0.1-0.4c0.1-0.1,0.2-0.2,0.3-0.3c0.1-0.1,0.3-0.1,0.5-0.1c0.4,0,0.7,0.2,1,0.7c3.1,5.3,6.2,10.6,9.2,15.9
			c3.1,5.3,6.1,10.6,9.2,15.9c0,0.1,0,0.1,0.1,0.2c0.1-0.1,0.1-0.1,0.1-0.2l1-2c2.9-5,5.8-10,8.7-14.9c2.9-4.9,5.8-9.9,8.7-14.9
			c0.3-0.5,0.6-0.7,1-0.7c0.2,0,0.4,0,0.5,0.1s0.2,0.2,0.3,0.3c0.1,0.1,0.1,0.3,0.1,0.4s0,0.3,0,0.3c0.7,6.9,1.4,13.7,2.1,20.5
			s1.4,13.6,2.1,20.5l0.2,2.3v0.1C433.7,132.9,433.6,133.1,433.3,133.3z M436.4,60.8c-1.9,0.5-3.9,0.8-6,0.8h-14.1
			c-0.3,0-0.5-0.1-0.8-0.2s-0.4-0.4-0.4-0.7L415,18.2c0-0.3,0.1-0.6,0.3-0.8c0.2-0.2,0.4-0.3,0.7-0.3h14.5c2.1,0,4,0.3,5.9,0.8
			s3.7,1.3,5.3,2.3c1.7,1,3.2,2.1,4.5,3.5c1.4,1.3,2.5,2.8,3.5,4.5c1,1.6,1.7,3.4,2.2,5.3s0.8,3.9,0.8,5.9c0,2.1-0.3,4-0.8,5.9
			s-1.3,3.7-2.2,5.3c-1,1.7-2.1,3.2-3.5,4.5c-1.4,1.4-2.9,2.5-4.5,3.5C440.1,59.5,438.3,60.3,436.4,60.8z M482.2,133.5h-5.9
			c-0.8,0-1.4-0.4-1.7-1.1l-1.7-4.4H453l-1.7,4.4c-0.3,0.8-0.9,1.2-1.7,1.2h-5.9c-0.4,0-0.8-0.1-0.9-0.2c-0.2-0.2-0.3-0.4-0.3-0.7
			c0-0.1,0-0.2,0-0.4c0-0.1,0.1-0.2,0.1-0.3c3-7,6-14,8.9-21c3-7,6-13.9,9-21c0.2-0.4,0.3-0.8,0.5-1.2c0.2-0.4,0.4-0.8,0.6-1.2
			c0.1-0.2,0.2-0.3,0.4-0.5s0.4-0.2,0.8-0.2c0.3,0,0.6,0.1,0.8,0.3c0.2,0.2,0.4,0.4,0.5,0.6s0.2,0.4,0.3,0.6s0.2,0.3,0.2,0.4
			l0.5,1.2c3.1,7,6.1,14,9.1,21s6,14,9,21c0,0.1,0,0.2,0.1,0.3c0,0.1,0,0.2,0,0.3C483.4,133.2,483,133.5,482.2,133.5z M494.1,61.5
			l-29.6,0.1c-0.3,0-0.6-0.1-0.7-0.3c-0.2-0.2-0.2-0.4-0.2-0.8l-0.1-42.4c0-0.5,0.1-0.8,0.3-0.9s0.5-0.2,0.8-0.2l29-0.1
			c0.8,0,1.1,0.4,1.1,1.1v1c0,0.3-0.1,0.6-0.3,0.8c-0.2,0.2-0.5,0.3-0.9,0.3l-26.7,0.1l0.1,22.4h21.6c0.3,0,0.6,0.1,0.8,0.3
			c0.2,0.2,0.3,0.5,0.3,0.9v1.1c0,0.3-0.1,0.6-0.3,0.8c-0.2,0.2-0.5,0.3-0.8,0.3h-21.6v12.3l27.2-0.1c0.8,0,1.1,0.4,1.1,1.1v1.1
			C495.2,61.1,494.9,61.5,494.1,61.5z M533.5,134.2c0,0.1,0,0.3-0.1,0.4s-0.2,0.3-0.3,0.4s-0.3,0.2-0.6,0.2s-0.6-0.1-0.8-0.4
			L503.2,106l0.1,26.1c0,0.9-0.5,1.4-1.4,1.4h-5.3c-0.9,0-1.4-0.5-1.4-1.4l-0.1-43.4c0-0.1,0-0.2,0-0.3c0-0.2,0-0.3,0.1-0.4
			s0.2-0.3,0.3-0.4s0.3-0.2,0.6-0.2s0.6,0.1,0.8,0.4l28.5,29.4l-0.1-26.8c0-1,0.5-1.4,1.4-1.4h5.3c0.9,0,1.4,0.5,1.4,1.4l0.1,43.6
			C533.6,133.9,533.6,134,533.5,134.2z M537,37.8c-0.3,1.4-0.8,2.7-1.5,3.9c-0.7,1.2-1.5,2.4-2.4,3.4c-1,1.1-2.1,2-3.3,2.7l5.8,12.2
			c0,0,0,0.1,0.1,0.2c0,0.1,0,0.2,0,0.3c0,0.2-0.1,0.4-0.2,0.6c-0.1,0.2-0.4,0.3-0.6,0.3h-1.8c-0.4,0-0.7-0.2-0.9-0.6l-5.4-11.4
			c-1.9,0.7-4,1.1-6.4,1.1h-12.2v9.8c0,0.8-0.4,1.1-1.2,1.1h-1.1c-0.8,0-1.1-0.4-1.1-1.1l-0.1-42.2c0-0.3,0.1-0.6,0.3-0.9
			c0.2-0.2,0.5-0.4,0.7-0.4h14.6c2.6,0,5,0.5,7.1,1.4s3.9,2.2,5.4,3.8c1.5,1.6,2.6,3.4,3.4,5.4c0.8,2,1.2,4.1,1.2,6.3
			C537.5,35,537.4,36.4,537,37.8z M585.8,117c-0.5,1.9-1.3,3.7-2.3,5.3c-1,1.6-2.1,3.1-3.5,4.5s-2.9,2.5-4.6,3.5
			c-1.7,1-3.5,1.7-5.4,2.2s-3.9,0.8-6,0.8h-14.4c-0.4,0-0.7-0.1-1-0.3c-0.3-0.2-0.4-0.5-0.4-1l-0.1-41.8c0-0.5,0.1-0.8,0.3-1.1
			c0.2-0.3,0.6-0.4,1-0.4h14.4c2.1,0,4.1,0.3,6,0.8s3.7,1.3,5.4,2.2c1.7,1,3.2,2.1,4.6,3.5c1.4,1.3,2.5,2.8,3.5,4.5
			c1,1.6,1.7,3.4,2.3,5.3c0.5,1.9,0.8,3.9,0.8,6C586.6,113.1,586.4,115.1,585.8,117z M585,61.9c-3.2,0-6.1-0.6-8.9-1.8
			c-2.8-1.2-5.2-2.8-7.3-4.9s-3.7-4.5-4.9-7.2c-1.2-2.8-1.8-5.7-1.8-8.9c0-2.1,0.3-4.1,0.8-6.1c0.5-1.9,1.3-3.8,2.3-5.5
			s2.2-3.2,3.6-4.6c1.4-1.4,2.9-2.6,4.6-3.6c1.7-1,3.5-1.8,5.5-2.3c1.9-0.6,4-0.8,6.1-0.8c2.7,0,5.2,0.4,7.6,1.3
			c2.4,0.9,4.6,2.1,6.6,3.6c0.3,0.2,0.5,0.5,0.5,0.8c0,0.2-0.1,0.4-0.3,0.7c0,0-0.1,0.1-0.2,0.3c-0.1,0.2-0.2,0.3-0.4,0.5
			c-0.1,0.2-0.3,0.3-0.5,0.5c-0.2,0.1-0.3,0.2-0.4,0.2l0,0h-0.1c-0.1,0-0.1,0-0.2,0c-0.1,0-0.2-0.1-0.4-0.2
			c-1.7-1.3-3.6-2.3-5.5-3.1c-2-0.7-4.1-1.1-6.3-1.1c-1.8,0-3.6,0.2-5.3,0.7s-3.3,1.1-4.7,2c-1.5,0.9-2.8,1.9-4,3.1s-2.2,2.5-3.1,4
			c-0.8,1.5-1.5,3-2,4.7s-0.7,3.4-0.7,5.1c0,1.8,0.2,3.5,0.7,5.2c0.5,1.6,1.1,3.2,2,4.6s1.9,2.7,3.1,3.9c1.2,1.2,2.5,2.2,4,3
			c1.4,0.8,3,1.5,4.6,1.9c1.6,0.5,3.3,0.7,5.1,0.7c4.1,0,8.1-1.4,11.8-4.1l0.7-0.4c0.2-0.1,0.4-0.2,0.5-0.2s0.3,0.1,0.5,0.2
			c0.2,0.2,0.4,0.4,0.6,0.6c0.2,0.2,0.3,0.5,0.5,0.7c0.1,0.3,0.2,0.5,0.2,0.7s0,0.3-0.1,0.5c-0.1,0.1-0.2,0.3-0.4,0.4
			c-2,1.5-4.1,2.7-6.5,3.6C590.3,61.4,587.8,61.8,585,61.9z M642.2,117c-0.5,2-1.3,3.8-2.3,5.5s-2.2,3.2-3.6,4.6
			c-1.4,1.4-2.9,2.6-4.6,3.6c-1.7,1-3.5,1.8-5.5,2.3c-1.9,0.5-4,0.8-6.1,0.8s-4.2-0.3-6.1-0.8c-2-0.5-3.8-1.3-5.5-2.3
			s-3.3-2.2-4.6-3.6c-1.4-1.4-2.6-2.9-3.6-4.6s-1.8-3.5-2.3-5.5c-0.5-1.9-0.8-4-0.8-6.1s0.3-4.1,0.8-6.1s1.3-3.8,2.3-5.5
			s2.2-3.3,3.6-4.7c1.4-1.4,2.9-2.6,4.6-3.6c1.7-1,3.5-1.8,5.5-2.3c1.9-0.6,4-0.8,6.1-0.8s4.1,0.3,6.1,0.8s3.8,1.3,5.5,2.3
			s3.3,2.2,4.7,3.6s2.6,2.9,3.6,4.6s1.8,3.5,2.3,5.5c0.6,2,0.8,4,0.8,6.1C643.1,113,642.8,115,642.2,117z M642.6,61.2
			c-0.3,0-0.6,0-0.9-0.1c-0.3-0.1-0.6-0.2-0.7-0.3c-1.2-2-2.5-4.1-3.7-6.1s-2.4-4-3.7-6.1c-1.1-1.9-2.3-3.8-3.5-5.8
			s-2.4-3.9-3.5-5.9l-3.2-5.3c-1.3,1.2-2.6,2.5-3.9,3.7c-1.3,1.2-2.5,2.5-3.9,3.7l-3.3,3v17.9c0,0.8-0.4,1.1-1.2,1.1H610
			c-0.8,0-1.1-0.4-1.1-1.1l-0.1-42.3c0-0.3,0.1-0.6,0.3-0.8c0.2-0.2,0.5-0.3,0.9-0.3h1.1c0.3,0,0.6,0.1,0.8,0.3
			c0.2,0.2,0.3,0.5,0.3,0.8v19.6l20.7-19.8c0.3-0.3,0.5-0.5,0.7-0.6s0.5-0.2,0.7-0.3c0.3-0.1,0.5-0.1,0.9-0.1c0.3,0,0.7,0,1.1,0
			c0.4,0,0.8,0.1,1.1,0.2s0.5,0.3,0.5,0.7c0,0.2-0.1,0.3-0.3,0.5l-11.9,11.3l18.2,30.3c0.1,0.2,0.2,0.5,0.2,0.7
			C644.2,60.9,643.7,61.2,642.6,61.2z"/>
	</g>
</g>
</svg>
