<?xml version="1.0" encoding="utf-8"?>
<!-- Generator: Adobe Illustrator 21.1.0, SVG Export Plug-In . SVG Version: 6.00 Build 0)  -->
<svg version="1.1" id="Calque_1" xmlns="http://www.w3.org/2000/svg" xmlns:xlink="http://www.w3.org/1999/xlink" x="0px" y="0px"
	 viewBox="0 0 525 288" style="enable-background:new 0 0 525 288;" xml:space="preserve">
<style type="text/css">
	.st0{fill:#FFFFFF;}
</style>
<g id="Normal">
	<g>
		<path class="st0" d="M215.7,16.1h291.2l-34.1,59.1H324.1H318l3,5.3l38.5,66.7l1,1.8h2H430l-68.9,119.4L215.7,16.1 M209.6,12.6
			l151.7,262.7l75-129.9h-73.6l-38.5-66.7h150.7l38.2-66.1L209.6,12.6L209.6,12.6z"/>
	</g>
	<g>
		<path class="st0" d="M164.5,19.2l145.6,252.2h-67.2l-36.8-63.7l-1-1.8h-2h-74.6h-2l-1,1.8l-36.8,63.7l0,0H18.9L164.5,19.2
			 M164.5,12.2L12.8,274.9h75.8h2.1l37.8-65.4h74.6l37.8,65.4h75.3L164.5,12.2L164.5,12.2z"/>
	</g>
</g>
</svg>
